<?xml version="1.0" standalone="no"?>
<!DOCTYPE svg PUBLIC "-//W3C//DTD SVG 20010904//EN"
 "http://www.w3.org/TR/2001/REC-SVG-20010904/DTD/svg10.dtd">
<svg version="1.0" xmlns="http://www.w3.org/2000/svg"
 width="512.000000pt" height="512.000000pt" viewBox="0 0 512.000000 512.000000"
 preserveAspectRatio="xMidYMid meet">

<g transform="translate(0.000000,512.000000) scale(0.100000,-0.100000)"
fill="#000000" stroke="none">
<path d="M2475 5114 c-319 -21 -629 -159 -706 -314 -48 -97 -280 -775 -323
-946 -25 -99 -30 -219 -12 -303 31 -144 73 -211 363 -573 l175 -219 -73 -97
c-40 -53 -360 -476 -711 -939 -350 -464 -642 -852 -648 -862 -5 -11 -10 -35
-10 -54 0 -29 40 -86 288 -408 257 -335 292 -375 326 -387 54 -17 97 -1 140
51 18 23 311 426 650 895 340 468 621 852 625 852 4 0 215 -288 470 -640 l463
-640 443 0 c244 0 450 -3 459 -6 11 -4 41 29 106 117 80 109 90 127 90 165 0
40 -31 83 -721 994 -396 524 -718 958 -716 964 3 6 89 117 192 246 255 320
299 386 330 507 19 72 19 227 1 313 -30 138 -271 850 -327 967 -61 126 -301
256 -547 297 -95 16 -248 25 -327 20z m295 -815 c36 -5 100 -17 142 -26 l78
-16 -27 -46 c-36 -62 -249 -383 -336 -504 l-69 -99 -35 49 c-74 103 -393 584
-393 593 0 5 12 12 28 16 15 3 43 10 62 14 30 7 133 21 250 34 49 5 222 -3
300 -15z"/>
</g>
</svg>
