<?xml version="1.0" standalone="no"?>
<!DOCTYPE svg PUBLIC "-//W3C//DTD SVG 20010904//EN"
 "http://www.w3.org/TR/2001/REC-SVG-20010904/DTD/svg10.dtd">
<svg version="1.0" xmlns="http://www.w3.org/2000/svg"
 width="512.000000pt" height="512.000000pt" viewBox="0 0 512.000000 512.000000"
 preserveAspectRatio="xMidYMid meet">

<g transform="translate(0.000000,512.000000) scale(0.100000,-0.100000)"
fill="#000000" stroke="none">
<path d="M1882 4945 c-106 -33 -155 -101 -193 -266 -15 -66 -35 -131 -43 -144
-9 -13 -44 -43 -78 -66 -103 -69 -148 -110 -210 -188 -68 -85 -128 -198 -160
-303 l-23 -73 -3 -1631 -2 -1632 -45 -6 c-24 -4 -66 -22 -92 -39 -142 -96
-136 -311 11 -402 l49 -30 880 -3 c857 -2 883 -2 976 18 55 12 109 30 127 43
17 12 391 309 831 660 l801 639 46 99 c25 54 46 107 46 118 0 44 -38 69 -158
107 -64 20 -118 37 -119 38 -1 0 -7 57 -13 126 -7 69 -18 135 -26 147 -9 15
-51 34 -137 62 l-125 42 -6 64 c-3 36 -9 95 -12 131 -5 45 -13 73 -25 85 -10
10 -72 35 -138 56 l-119 38 -6 75 c-19 220 -15 214 -177 264 l-116 36 -11 126
c-13 138 -21 160 -59 175 -36 13 -216 -24 -258 -54 -16 -11 -139 -108 -273
-214 -133 -106 -244 -193 -246 -193 -3 0 -6 228 -9 508 -3 479 -5 511 -25 589
-57 219 -181 391 -378 524 -41 28 -79 60 -84 72 -6 12 -21 70 -35 130 -13 59
-32 122 -41 140 -58 115 -195 172 -322 132z m136 -159 c37 -19 47 -42 76 -166
14 -58 29 -117 35 -132 16 -42 77 -104 153 -155 142 -96 249 -239 300 -403
l23 -75 3 -1608 2 -1607 -640 0 -640 0 0 1598 c0 1558 1 1601 20 1676 44 171
148 314 309 425 126 86 146 117 183 293 18 88 26 108 54 136 36 36 76 42 122
18z m1436 -1698 c3 -29 8 -79 11 -110 4 -32 14 -67 23 -78 11 -13 61 -35 137
-59 l120 -38 8 -79 c16 -167 19 -186 36 -203 9 -9 71 -34 137 -55 l120 -38 12
-131 c9 -104 14 -134 30 -149 10 -10 72 -36 138 -58 l119 -39 11 -123 c6 -68
15 -131 19 -141 10 -24 42 -39 148 -71 l88 -27 -23 -39 c-17 -28 -232 -205
-796 -655 -424 -338 -774 -615 -776 -615 -2 0 -9 27 -15 60 -20 101 -98 179
-193 195 l-38 7 0 204 c0 112 2 204 5 204 3 0 16 -7 29 -15 41 -27 179 -73
259 -85 91 -15 234 -8 322 15 73 19 188 72 252 117 144 99 243 232 305 410 31
89 33 100 33 243 0 129 -3 160 -23 225 -97 308 -339 520 -652 570 -139 21
-295 1 -425 -56 -44 -19 -86 -38 -92 -41 -10 -4 -13 19 -13 99 l0 104 308 246
c169 135 318 248 332 251 14 2 28 5 32 6 4 0 9 -23 12 -51z m-146 -723 c240
-48 441 -241 497 -477 19 -81 19 -215 -1 -298 -27 -118 -78 -206 -173 -300
-98 -97 -170 -138 -295 -170 -179 -45 -379 -8 -523 99 l-43 31 0 122 0 121 29
-40 c40 -55 105 -108 173 -143 202 -100 453 -42 590 137 61 81 90 158 96 259
5 98 -8 167 -50 251 -52 107 -113 139 -163 88 -33 -32 -32 -73 4 -129 40 -64
55 -124 49 -204 -8 -113 -73 -208 -176 -259 -49 -24 -69 -28 -142 -28 -73 0
-92 4 -135 27 -111 59 -177 162 -179 278 -1 129 67 240 182 297 52 25 67 28
163 28 121 0 149 13 149 67 0 70 -44 93 -175 93 -152 0 -279 -59 -372 -174
l-43 -52 0 119 0 120 34 25 c68 52 192 104 286 120 56 10 145 6 218 -8z m-492
-1908 c20 -17 27 -33 27 -57 0 -24 -7 -40 -27 -57 l-27 -23 -823 0 c-818 0
-823 0 -850 21 -20 16 -26 29 -26 59 0 30 6 43 26 59 27 21 32 21 850 21 l823
0 27 -23z"/>
<path d="M1516 3819 l-26 -20 0 -279 0 -279 26 -20 c35 -28 67 -26 101 3 l28
24 0 272 0 272 -28 24 c-34 29 -66 31 -101 3z"/>
<path d="M1516 3019 c-24 -19 -26 -26 -26 -99 0 -73 2 -80 26 -99 35 -28 67
-26 101 3 26 22 28 30 28 96 0 66 -2 74 -28 96 -34 29 -66 31 -101 3z"/>
</g>
</svg>
