<?xml version="1.0" encoding="utf-8"?>
<!-- Svg Vector Icons : http://www.onlinewebfonts.com/icon -->
<!DOCTYPE svg PUBLIC "-//W3C//DTD SVG 1.1//EN" "http://www.w3.org/Graphics/SVG/1.1/DTD/svg11.dtd">
<svg version="1.1" xmlns="http://www.w3.org/2000/svg" xmlns:xlink="http://www.w3.org/1999/xlink" x="0px" y="0px" viewBox="0 0 1000 1000" enable-background="new 0 0 1000 1000" xml:space="preserve">
<metadata> Svg Vector Icons : http://www.onlinewebfonts.com/icon </metadata>
<g><path d="M651.2,299.7c-64.9,87.7-143,228.3-137.3,411.8c30.8,25.3,33.8-28.2,61-30.5c1.7,50.1-29.9,66.9-22.7,122.1c-28.2,4.8-76.1-9.9-91.6,7.6c-18.9-24.4-19.2-67.2-30.5-99.2c-27.3,27.8,20.6,85.5-7.7,114.4c-61.1-32.9-34.3-163.6-22.7-228.7c-57.5-56.1-44.7-176.5-84-251.7c-36.9-70.6-143-102.5-221.1-68.6c81.3,25.2,182,63.9,160.2,167.8c-123.7,40.8-254.5-64.2-244-175.4C22.3,145.3,223,161.9,300.4,231.1c105.9-42.2,265.6,23.2,388.9,0c51.9-9.7,211.3-125.1,282.1-22.9c54.9,79.3-25.6,159.8-61,213.6c-55.2,4.7-117.7,52.4-167.6,15.3c1.3-8.9-1.7-13.6-7.6-15.3c5.7-101,100-113.6,167.8-152.5c-77.1-44.3-163.4,28.3-213.6,61.1c19.4,96.7-70,172.1-83.9,251.6c-14.7,84.2,57.4,190.5-22.9,251.7C597,750,556.3,662.2,567.3,582c4.8-35.1,42.6-64.5,61.1-114.4c32.9-89.3,2.7-181,91.4-198.3c-77.7,42.5-313.3,91.7-411.8,7.6c61.2,53.2,63.1,231.8,129.6,304.9c-7.3,68-24.5,109.8,30.6,137.3c52.2-63-0.2-141.6-23-198.3c-19.2-47.7-21.6-104.9-38-137.3c-16.6-32.8-57.3-52.6-45.8-76.2C438.5,351.1,579.1,341.6,651.2,299.7z M63.9,261.6c21.9-69.8,154.9-28.1,190.7-15.2c-54.2-41.1-190.8-58.7-205.9,22.9c-4.2,22.2,21.9,101.1,45.8,76.3C97.5,312.3,48.8,310.1,63.9,261.6z M941,269.2c3.6,48.6-71,40.2-30.6,91.5c16.9-35.6,56.3-75.3,30.6-129.6c-53.6-48.7-203.2-15.7-205.9,30.5C786.5,218.7,934.1,177.8,941,269.2z M376.6,269.2c67.2,25.2,179.2,33.4,236.4-7.5C536.6,255,442,245.7,376.6,269.2z M773.3,414.1c48.1-2.7,91.8-9.9,99-53.4c-5.9-1.7-8.8-6.4-7.5-15.2C808.3,342.5,785.4,373,773.3,414.1z M224.1,421.8c-4.5-48.7-33.6-73.1-91.5-68.6C125.2,413.8,175.7,416.8,224.1,421.8z"/></g>
</svg>