<?xml version="1.0" standalone="no"?>
<!DOCTYPE svg PUBLIC "-//W3C//DTD SVG 20010904//EN"
 "http://www.w3.org/TR/2001/REC-SVG-20010904/DTD/svg10.dtd">
<svg version="1.0" xmlns="http://www.w3.org/2000/svg"
 width="682.000000pt" height="888.000000pt" viewBox="0 0 682.000000 888.000000"
 preserveAspectRatio="xMidYMid meet">

<g transform="translate(0.000000,888.000000) scale(0.100000,-0.100000)"
fill="#000000" stroke="none">
<path d="M1530 8410 c0 -5 5 -10 10 -10 6 0 10 5 10 10 0 6 -4 10 -10 10 -5 0
-10 -4 -10 -10z"/>
<path d="M1486 8389 c-14 -11 -26 -27 -26 -35 0 -13 5 -12 30 3 17 9 30 25 30
35 0 23 -2 22 -34 -3z"/>
<path d="M1397 8340 c-14 -11 -32 -20 -41 -20 -9 0 -16 -7 -16 -15 0 -8 -18
-19 -42 -27 -24 -7 -52 -20 -62 -30 -11 -10 -26 -18 -33 -18 -28 0 -73 -31
-73 -50 0 -11 -5 -20 -10 -20 -26 0 -83 -31 -74 -40 16 -16 86 1 92 22 2 11
12 18 21 16 12 -2 16 -15 16 -46 1 -42 14 -61 43 -62 6 0 12 -11 12 -24 0 -14
4 -28 10 -31 12 -7 92 29 116 52 10 10 22 18 28 19 43 2 77 38 61 64 -9 14 8
13 23 -2 9 -9 16 -8 31 8 38 36 50 44 75 44 27 0 41 27 31 59 -4 13 3 26 25
44 30 26 39 60 20 72 -23 14 -142 -36 -187 -78 -28 -27 -34 -29 -49 -16 -16
12 -17 12 -11 -3 4 -12 2 -15 -9 -11 -24 9 -16 33 20 54 25 15 33 25 29 39 -7
25 -14 25 -46 0z"/>
<path d="M976 8111 c-10 -15 33 -20 45 -5 9 11 7 14 -14 14 -14 0 -28 -4 -31
-9z"/>
<path d="M882 8057 c-6 -6 -13 -24 -17 -40 -7 -26 -25 -38 -25 -17 0 14 -32
12 -52 -4 -10 -7 -18 -22 -18 -32 0 -15 -7 -20 -27 -19 -16 0 -28 -5 -28 -13
0 -7 -6 -16 -13 -21 -8 -5 -12 -21 -10 -37 3 -26 6 -29 37 -26 43 3 62 27 50
60 -9 22 -7 24 16 18 37 -9 76 3 73 23 -2 10 5 17 20 19 12 2 22 10 22 18 0 8
5 14 10 14 6 0 10 7 10 15 0 27 20 16 27 -15 3 -17 10 -33 14 -36 5 -3 9 -14
9 -24 0 -10 5 -22 12 -26 7 -4 8 -3 4 4 -4 6 2 17 12 23 28 18 17 51 -14 43
-21 -5 -24 -3 -24 19 0 29 -16 43 -42 39 -13 -2 -16 1 -12 12 7 19 -19 22 -34
3z"/>
<path d="M1170 8021 c0 -5 5 -13 10 -16 6 -3 10 -2 10 4 0 5 -4 13 -10 16 -5
3 -10 2 -10 -4z"/>
<path d="M1840 7974 c-47 -25 -103 -56 -125 -69 -22 -13 -47 -27 -55 -31 -47
-20 -146 -69 -150 -74 -10 -10 -50 -30 -62 -30 -7 0 -19 -9 -26 -20 -7 -11
-18 -20 -26 -20 -21 0 -53 -33 -80 -84 -27 -52 -33 -76 -16 -76 6 0 10 7 10
15 0 8 6 12 14 9 36 -14 18 -124 -21 -124 -12 0 -23 -5 -25 -11 -2 -7 -12 -7
-31 0 -25 10 -27 9 -27 -15 0 -15 -4 -23 -10 -19 -6 4 -9 21 -7 38 2 24 11 36
33 46 50 24 54 51 8 51 -35 0 -33 42 4 60 27 14 27 14 4 18 -16 2 -31 -5 -47
-22 -13 -14 -27 -26 -31 -26 -13 0 -54 -45 -54 -60 0 -13 1 -13 10 0 9 13 11
13 20 0 5 -8 10 -23 10 -32 0 -20 -15 -24 -25 -8 -3 6 -17 10 -31 10 -16 0
-24 6 -24 18 -1 16 -1 16 -11 0 -5 -10 -21 -18 -34 -18 -13 0 -27 -5 -30 -10
-4 -6 -15 -8 -26 -5 -11 4 -18 3 -17 -2 4 -15 -23 -54 -45 -63 l-22 -9 23 0
c12 -1 22 -5 22 -9 0 -9 -44 -33 -68 -38 -20 -4 -42 -25 -42 -40 0 -8 -6 -11
-16 -7 -11 4 -15 1 -12 -13 2 -16 -2 -18 -29 -16 -26 3 -33 0 -33 -13 0 -11
-5 -15 -14 -12 -9 4 -17 -2 -21 -14 -4 -10 -12 -19 -20 -19 -15 0 -31 -38 -20
-48 6 -6 20 11 28 32 4 12 56 -25 57 -40 0 -17 -45 -54 -66 -54 -11 0 -25 -5
-32 -12 -10 -10 -5 -16 20 -28 21 -9 34 -24 36 -38 3 -19 6 -21 18 -11 8 6 14
21 14 32 0 19 1 19 13 5 11 -15 19 -12 74 22 38 24 70 36 82 33 14 -3 34 9 69
44 27 26 63 56 81 66 28 16 32 16 37 3 3 -9 11 -16 18 -16 15 0 66 48 66 61 0
6 6 9 14 6 8 -3 29 5 47 19 18 13 38 24 45 24 7 0 14 10 16 23 2 15 10 22 24
21 13 0 29 11 40 28 16 24 54 52 40 30 -2 -4 -1 -13 2 -20 8 -11 65 3 110 28
9 5 35 17 56 26 21 10 41 25 43 35 6 20 44 39 82 39 16 0 53 14 84 30 31 17
61 30 66 30 6 0 21 11 35 25 14 14 34 25 44 25 11 0 22 7 26 15 3 8 11 15 19
15 17 0 51 76 43 96 -3 8 -11 14 -18 12 -7 -1 -24 1 -38 5 -22 5 -25 12 -26
48 -1 41 -1 42 52 65 38 17 54 29 54 43 0 17 -5 18 -42 14 -24 -3 -54 -11 -68
-18 -14 -7 -47 -21 -75 -30 -27 -10 -57 -23 -65 -30 -8 -7 -32 -18 -53 -25
-21 -6 -46 -21 -57 -32 -19 -21 -51 -22 -57 -2 -2 7 47 37 109 69 62 31 120
63 129 71 8 8 23 14 33 14 23 0 56 18 56 30 0 17 -23 10 -110 -36z"/>
<path d="M1120 7931 c0 -25 6 -27 13 -6 4 8 2 17 -3 20 -6 4 -10 -3 -10 -14z"/>
<path d="M870 7890 c0 -5 5 -10 11 -10 5 0 7 5 4 10 -3 6 -8 10 -11 10 -2 0
-4 -4 -4 -10z"/>
<path d="M557 7857 c-3 -8 -20 -14 -38 -15 -23 0 -43 -11 -68 -36 -31 -32 -34
-39 -23 -56 23 -37 8 -55 -21 -25 -13 13 -17 13 -27 -1 -11 -12 -9 -19 9 -38
22 -23 22 -25 5 -44 l-18 -21 -23 25 c-13 14 -28 22 -33 19 -6 -4 -17 -2 -25
5 -11 9 -18 7 -34 -9 -12 -12 -32 -21 -46 -21 -15 0 -44 -17 -74 -44 -27 -24
-59 -47 -70 -51 -23 -7 -26 -16 -11 -31 15 -15 -8 -77 -25 -70 -27 10 -35 -22
-34 -137 l0 -117 25 16 c21 14 22 19 12 33 -11 14 -11 14 3 3 14 -11 25 -8 65
16 27 16 82 49 122 72 40 24 78 50 85 59 7 10 27 23 44 30 42 17 76 49 91 84
10 24 15 26 32 17 26 -14 25 -6 -4 54 -19 40 -22 53 -12 68 10 17 13 16 43
-16 20 -21 32 -43 31 -57 -2 -12 2 -23 8 -26 18 -6 119 72 117 91 0 10 4 15
12 12 9 -3 11 2 8 15 -3 10 -14 19 -24 19 -15 0 -17 5 -13 30 4 18 1 36 -6 45
-10 12 -9 15 6 15 14 0 11 5 -12 20 -20 13 -34 32 -38 50 -6 31 -30 41 -39 17z"/>
<path d="M761 7774 c0 -11 3 -14 6 -6 3 7 2 16 -1 19 -3 4 -6 -2 -5 -13z"/>
<path d="M700 7720 c0 -13 5 -18 15 -14 8 4 15 10 15 14 0 4 -7 10 -15 14 -10
4 -15 -1 -15 -14z"/>
<path d="M750 7720 c-12 -8 -11 -10 8 -10 12 0 22 5 22 10 0 13 -11 13 -30 0z"/>
<path d="M325 7710 c3 -5 8 -10 11 -10 2 0 4 5 4 10 0 6 -5 10 -11 10 -5 0 -7
-4 -4 -10z"/>
<path d="M1275 7500 c-3 -5 -1 -10 4 -10 6 0 11 5 11 10 0 6 -2 10 -4 10 -3 0
-8 -4 -11 -10z"/>
<path d="M2080 7419 c0 -18 2 -19 15 -9 15 12 12 30 -6 30 -5 0 -9 -10 -9 -21z"/>
<path d="M2036 7394 c-9 -9 -14 -19 -11 -22 3 -3 13 2 22 11 9 9 14 19 11 22
-3 3 -13 -2 -22 -11z"/>
<path d="M1930 7355 c-7 -8 -17 -12 -24 -8 -6 4 -4 -2 4 -13 8 -10 15 -20 16
-22 1 -1 9 9 18 22 17 27 6 45 -14 21z"/>
<path d="M1860 7306 c0 -19 -32 -25 -45 -9 -8 11 -18 10 -52 -4 -24 -10 -43
-23 -43 -30 0 -7 -7 -10 -15 -7 -8 3 -28 -4 -44 -15 -16 -12 -36 -21 -44 -21
-8 0 -17 -9 -20 -20 -4 -16 -14 -20 -46 -20 -23 0 -41 -4 -41 -8 0 -5 -25 -19
-55 -31 -30 -13 -55 -27 -55 -31 0 -4 -14 -13 -31 -19 -22 -7 -29 -15 -25 -26
3 -9 0 -15 -9 -15 -8 0 -15 4 -15 9 0 4 -30 -7 -67 -25 -37 -19 -73 -34 -80
-34 -7 0 -13 -11 -13 -25 0 -31 4 -31 29 -3 16 16 31 21 62 20 23 -1 44 -4 46
-6 2 -1 -2 -27 -8 -55 -12 -59 -9 -69 16 -45 16 17 17 17 14 -1 -6 -29 -35
-42 -60 -27 -15 10 -24 11 -32 3 -14 -14 -44 -14 -52 -1 -4 6 -7 24 -7 40 -1
22 -6 30 -20 30 -10 0 -18 -4 -18 -9 0 -15 -51 -71 -64 -71 -7 0 -18 12 -25
26 l-12 26 -18 -24 c-11 -13 -38 -33 -60 -43 -22 -11 -41 -23 -41 -27 0 -5
-10 -8 -21 -8 -12 0 -32 -11 -45 -25 -13 -14 -29 -25 -37 -25 -23 0 -117 -51
-117 -64 0 -6 -25 -23 -55 -36 -30 -13 -55 -30 -55 -37 0 -7 -4 -13 -10 -13
-5 0 -10 6 -10 13 0 7 -3 8 -8 2 -4 -6 -38 -26 -77 -45 -71 -35 -143 -80 -179
-112 -11 -10 -29 -21 -40 -24 -23 -7 -121 -74 -203 -138 -45 -35 -53 -46 -53
-74 0 -18 7 -41 16 -50 15 -14 15 -17 0 -27 -25 -19 -19 -32 19 -45 27 -9 35
-17 35 -35 0 -12 8 -33 18 -44 l17 -22 73 36 c44 22 77 46 82 59 5 11 12 30
15 41 5 13 9 15 12 8 9 -25 42 -14 45 15 2 15 8 27 13 28 6 0 17 4 25 7 8 4
24 5 35 4 14 -1 21 5 23 21 3 20 8 22 33 17 22 -5 41 0 74 20 72 42 102 106
64 133 -11 7 -19 25 -19 39 0 15 -7 34 -16 44 -33 36 8 46 48 12 14 -13 17
-12 26 3 15 26 33 7 29 -31 l-4 -34 41 5 c67 8 68 10 61 54 -6 36 -5 39 12 33
10 -3 21 -11 25 -17 5 -7 13 -4 22 9 9 11 16 17 16 13 0 -5 9 1 20 12 22 22
56 26 63 8 3 -7 6 -4 6 8 1 11 -4 25 -10 31 -6 6 -9 17 -7 25 3 8 12 -1 24
-22 l19 -35 3 30 c2 19 -2 33 -13 41 -9 7 -15 22 -13 36 2 17 10 23 30 23 14
1 34 7 43 15 15 12 19 11 35 -10 l18 -23 6 21 c4 13 16 22 26 22 13 0 22 9 26
25 3 14 12 25 20 25 14 0 17 -12 17 -62 -1 -16 2 -28 6 -29 3 0 16 -2 29 -5
15 -3 34 7 60 30 20 18 42 31 49 29 11 -4 73 23 83 36 10 14 91 51 111 51 21
0 149 76 162 97 4 7 14 13 22 13 9 0 12 6 9 15 -8 20 22 31 42 15 12 -11 20
-9 44 8 16 12 33 22 37 22 5 0 9 12 8 28 0 25 3 27 43 28 26 1 48 7 53 15 13
21 11 29 -7 29 -10 0 -13 6 -9 19 4 12 0 21 -11 25 -16 6 -16 8 0 25 13 14 14
21 6 26 -9 6 -9 10 1 16 12 8 11 11 -2 19 -13 8 -16 22 -14 60 2 27 0 52 -6
55 -5 4 -9 -1 -9 -9z"/>
<path d="M1970 7310 c0 -5 5 -10 10 -10 6 0 10 5 10 10 0 6 -4 10 -10 10 -5 0
-10 -4 -10 -10z"/>
<path d="M2001 7232 c-10 -20 -9 -47 2 -58 12 -12 8 -24 -8 -24 -8 0 -16 -4
-16 -10 -1 -5 -2 -14 -3 -19 -2 -14 -16 -26 -16 -14 0 21 -35 6 -38 -15 -3
-16 2 -22 17 -23 12 -1 26 -2 33 -3 6 -1 17 15 23 34 12 37 45 54 45 24 0 -33
12 -5 13 32 2 44 23 56 36 21 15 -39 31 -43 31 -8 0 17 5 31 10 31 6 0 10 -5
10 -10 0 -6 8 -5 20 2 25 16 5 30 -32 22 -19 -4 -28 -1 -28 7 0 10 -3 10 -12
1 -17 -17 -58 -15 -58 2 0 23 -18 28 -29 8z"/>
<path d="M576 7155 c-11 -8 -27 -15 -37 -15 -9 0 -20 -7 -23 -15 -3 -9 -11
-15 -18 -13 -23 4 -71 -13 -87 -31 -21 -24 -104 -71 -124 -71 -19 0 -72 -35
-109 -73 -15 -15 -34 -27 -43 -27 -8 0 -15 -4 -15 -8 0 -5 -11 -14 -24 -20
-13 -6 -40 -25 -60 -42 l-36 -32 0 -134 c0 -83 4 -134 10 -134 6 0 10 6 10 13
0 7 27 26 60 42 39 20 62 38 66 53 3 12 13 22 22 22 30 0 119 53 138 82 12 18
25 27 37 24 9 -2 17 0 17 4 0 9 29 27 89 55 50 24 70 53 71 103 0 28 9 59 26
88 l26 44 -29 -15 c-36 -19 -43 -19 -43 3 0 19 59 82 77 82 6 0 16 7 23 15 16
19 1 19 -24 0z"/>
<path d="M608 7043 c-33 -36 -48 -66 -48 -97 0 -31 15 -34 32 -6 7 11 17 20
23 20 5 0 21 9 35 19 l25 19 -28 7 c-18 5 -27 14 -27 26 0 16 3 18 19 9 27
-14 41 -13 41 4 0 13 -20 26 -39 26 -4 0 -19 -12 -33 -27z"/>
<path d="M4688 7058 c-2 -6 9 -25 24 -42 29 -31 36 -60 18 -71 -12 -8 -13 -45
-1 -45 5 0 14 7 21 15 18 21 50 19 77 -7 17 -16 26 -19 34 -11 9 9 6 19 -10
39 -27 34 -27 45 4 74 51 47 23 67 -35 25 -19 -14 -35 -25 -36 -25 -1 0 -17
13 -35 30 -36 32 -55 37 -61 18z"/>
<path d="M1227 6962 c-23 -25 -33 -77 -17 -87 14 -9 32 16 41 57 9 38 -3 53
-24 30z"/>
<path d="M1082 6948 c-12 -12 -17 -68 -6 -68 13 0 45 44 42 59 -4 19 -21 24
-36 9z"/>
<path d="M5054 6905 c-3 -8 8 -39 26 -70 25 -43 30 -62 24 -83 -4 -15 -6 -39
-5 -54 2 -27 -13 -46 -24 -28 -3 5 -1 10 4 10 6 0 11 7 11 15 0 9 -6 12 -15 9
-8 -4 -15 -10 -15 -16 0 -5 -11 -21 -25 -36 -29 -31 -33 -62 -7 -62 9 1 41 23
71 51 63 57 59 59 125 -42 23 -35 46 -64 51 -64 23 0 14 44 -26 122 -30 59
-40 88 -34 97 6 8 32 42 58 75 29 37 47 68 43 77 -7 19 -25 10 -88 -45 -54
-48 -71 -51 -95 -13 -18 27 -60 72 -69 72 -2 0 -7 -7 -10 -15z"/>
<path d="M2240 6891 c0 -6 5 -13 10 -16 6 -3 10 1 10 9 0 9 -4 16 -10 16 -5 0
-10 -4 -10 -9z"/>
<path d="M2071 6824 c-27 -35 -26 -42 4 -36 18 3 25 0 25 -12 0 -17 -45 -40
-61 -30 -5 3 -9 0 -9 -5 0 -6 -9 -11 -20 -11 -11 0 -20 6 -20 14 0 28 -24 35
-49 15 -13 -10 -20 -19 -16 -19 4 0 2 -7 -5 -15 -21 -25 -41 -19 -34 10 4 16
2 25 -6 25 -6 0 -9 -4 -6 -9 3 -5 -1 -14 -9 -21 -8 -7 -15 -21 -15 -31 0 -23
-49 -69 -72 -69 -21 0 -26 48 -7 67 7 7 -1 7 -25 -1 -27 -8 -36 -16 -36 -33 0
-39 -18 -70 -44 -77 -14 -3 -25 -12 -23 -18 3 -15 -50 -21 -59 -7 -3 6 -12 1
-21 -11 -8 -12 -21 -19 -29 -16 -8 3 -14 -1 -14 -10 0 -8 -6 -14 -12 -13 -32
4 -48 -2 -48 -19 0 -26 -11 -34 -27 -20 -11 9 -20 6 -43 -10 -16 -12 -34 -22
-41 -22 -15 0 -75 -37 -107 -67 -33 -30 -55 -26 -62 12 -4 22 -11 31 -30 33
-30 5 -50 -21 -50 -65 0 -26 -4 -33 -19 -33 -10 0 -21 7 -25 15 -5 15 -27 22
-25 8 3 -19 -2 -33 -11 -33 -5 0 -7 7 -4 15 4 8 1 15 -5 15 -6 0 -11 -5 -11
-10 0 -9 -39 -31 -65 -36 -41 -8 -55 -18 -55 -40 0 -24 -23 -33 -35 -14 -4 6
-16 3 -32 -10 -14 -11 -32 -20 -39 -20 -35 0 -94 -54 -104 -94 -4 -14 -14 -20
-35 -21 -28 0 -30 -3 -33 -40 -2 -23 -12 -47 -23 -58 -39 -37 -7 -28 54 16 31
22 60 10 32 -13 -8 -7 -15 -24 -15 -37 0 -18 -4 -24 -15 -19 -11 4 -15 -1 -15
-18 0 -12 -3 -26 -6 -29 -11 -11 -44 13 -44 32 0 15 -8 19 -43 19 -23 0 -36
-2 -29 -5 18 -7 15 -31 -7 -43 -15 -7 -20 -7 -23 4 -2 11 -10 10 -38 -5 -20
-11 -28 -19 -17 -19 11 0 17 -8 17 -23 0 -35 11 -40 37 -15 19 18 23 19 23 5
0 -9 7 -17 15 -17 8 0 15 -8 15 -18 0 -20 -33 -52 -55 -52 -8 0 -15 -8 -15
-17 0 -23 -35 -76 -46 -71 -5 2 -10 -8 -12 -22 l-3 -25 20 25 c19 24 21 24 38
7 14 -14 15 -19 5 -26 -16 -10 -55 -81 -44 -81 17 0 52 42 53 63 1 12 3 29 4
37 1 8 3 21 4 28 0 6 8 12 16 12 8 0 24 9 35 20 11 11 26 17 35 14 9 -4 25 2
35 11 23 21 24 20 38 -20 l10 -30 1 28 c1 28 27 48 40 31 8 -12 85 -11 102 1
8 6 27 17 43 25 16 8 31 23 34 33 4 16 20 22 49 18 11 -2 97 50 134 81 25 21
76 48 91 48 7 0 29 13 48 30 23 19 42 28 57 25 13 -2 23 1 23 6 0 17 37 44
121 88 46 24 96 54 110 66 46 38 139 79 152 66 18 -18 37 -12 37 12 0 17 13
28 53 48 28 15 60 29 69 33 12 3 15 11 11 22 -5 14 -1 15 25 10 20 -5 33 -3
39 6 4 7 14 13 21 14 6 1 21 2 32 3 11 0 20 8 20 16 0 8 3 15 8 15 4 0 17 3
30 6 17 5 22 2 22 -12 0 -15 4 -15 28 7 15 14 47 38 72 54 25 17 49 36 53 42
4 7 13 13 20 13 12 1 57 34 57 43 0 2 -13 10 -29 17 -29 12 -66 2 -82 -23 -8
-11 -49 9 -49 25 0 6 12 21 26 34 44 42 17 55 -61 29 -52 -18 -74 -12 -51 14
18 20 12 31 -16 31 -10 0 -18 5 -18 11 0 7 21 8 64 4 50 -6 66 -4 72 7 5 8 27
21 49 30 38 15 65 41 54 53 -3 3 -22 -2 -43 -10 -33 -14 -37 -14 -42 0 -4 8
-4 21 -1 29 3 8 0 20 -8 26 -10 8 -18 5 -34 -16z"/>
<path d="M1831 6754 c0 -11 3 -14 6 -6 3 7 2 16 -1 19 -3 4 -6 -2 -5 -13z"/>
<path d="M2333 6750 c-2 -19 8 -26 20 -14 7 7 -2 34 -12 34 -4 0 -7 -9 -8 -20z"/>
<path d="M1780 6660 c0 -5 5 -10 10 -10 6 0 10 5 10 10 0 6 -4 10 -10 10 -5 0
-10 -4 -10 -10z"/>
<path d="M4710 6562 c0 -10 14 -31 31 -48 53 -50 54 -60 13 -98 -21 -19 -34
-39 -30 -45 10 -16 21 -14 62 14 20 14 41 25 45 25 5 0 27 -16 49 -37 31 -27
44 -33 52 -25 9 9 4 20 -20 45 -39 40 -40 56 -6 97 36 43 19 61 -29 31 -47
-29 -55 -27 -105 19 -47 44 -62 49 -62 22z"/>
<path d="M977 6564 c-8 -8 1 -24 14 -24 5 0 9 7 9 15 0 15 -12 20 -23 9z"/>
<path d="M850 6469 c0 -5 5 -7 10 -4 6 3 10 8 10 11 0 2 -4 4 -10 4 -5 0 -10
-5 -10 -11z"/>
<path d="M2947 6273 c-9 -16 1 -104 13 -118 8 -10 30 -15 61 -15 l49 0 0 -165
c0 -132 -3 -165 -14 -165 -7 0 -34 -3 -59 -6 l-45 -6 -7 41 -7 41 -64 0 -64 0
0 -67 c0 -48 5 -76 18 -94 l17 -26 164 -2 c157 -2 164 -1 187 20 l24 22 0 258
c0 142 -3 264 -6 273 -5 13 -27 16 -134 16 -71 0 -131 -3 -133 -7z"/>
<path d="M3399 6273 c-75 -3 -100 -7 -111 -21 -11 -12 -17 -53 -22 -143 -7
-127 -7 -127 18 -146 18 -14 48 -22 105 -27 134 -11 141 -13 141 -51 0 -59 -6
-65 -71 -65 -55 0 -59 2 -59 23 0 13 -5 28 -12 35 -15 15 -104 16 -113 1 -14
-22 -18 -129 -5 -159 l12 -30 172 0 c222 0 216 -4 216 158 0 82 -4 120 -16
146 -17 34 -17 34 -103 40 -144 11 -144 11 -138 58 3 22 7 41 9 42 1 2 25 6
51 9 47 7 48 6 59 -23 9 -28 14 -30 56 -30 74 1 85 15 77 95 -7 59 -10 68 -34
77 -32 12 -107 16 -232 11z"/>
<path d="M3710 5985 l0 -296 73 3 72 3 3 121 3 120 59 -4 60 -4 0 60 c0 66 -6
72 -82 72 -38 0 -38 0 -38 40 l0 40 95 0 95 0 0 63 0 64 -122 6 c-66 4 -143 7
-170 7 l-48 0 0 -295z"/>
<path d="M540 6005 c0 -8 5 -15 10 -15 6 0 10 7 10 15 0 8 -4 15 -10 15 -5 0
-10 -7 -10 -15z"/>
<path d="M380 5953 c0 -4 5 -15 10 -23 8 -13 10 -13 10 2 0 9 -4 20 -10 23 -5
3 -10 3 -10 -2z"/>
<path d="M365 5871 c-3 -6 -10 -9 -15 -6 -4 3 -15 2 -24 -1 -18 -7 -22 -59 -6
-69 6 -3 10 1 10 9 0 9 5 16 12 16 6 0 9 3 5 6 -3 4 4 15 16 24 12 10 19 21
16 25 -4 3 -10 1 -14 -4z"/>
<path d="M374 5834 c-12 -10 -15 -17 -8 -20 7 -3 10 -15 7 -27 -5 -20 -4 -20
10 -7 18 18 33 70 20 70 -5 0 -18 -7 -29 -16z"/>
<path d="M553 5693 c-7 -3 -13 -11 -13 -19 0 -16 9 -18 27 -6 15 9 3 31 -14
25z"/>
<path d="M136 5674 c-8 -22 1 -31 16 -16 9 9 9 15 1 23 -7 7 -12 5 -17 -7z"/>
<path d="M347 5673 c-11 -11 -8 -45 4 -38 6 4 8 9 5 13 -3 3 2 11 12 18 15 12
15 13 1 14 -9 0 -19 -3 -22 -7z"/>
<path d="M515 5650 c3 -5 1 -10 -4 -10 -6 0 -11 -4 -11 -10 0 -5 7 -10 15 -10
8 0 15 9 15 20 0 11 -5 20 -11 20 -5 0 -7 -4 -4 -10z"/>
<path d="M3750 5621 c-54 -11 -96 -37 -121 -73 -12 -18 -24 -35 -25 -36 -1 -2
-16 6 -32 18 -58 43 -154 44 -234 4 -46 -23 -106 -82 -129 -126 -11 -21 -21
-38 -23 -38 -2 0 -25 10 -51 21 -36 16 -59 20 -92 15 -53 -7 -125 -37 -168
-71 -36 -27 -93 -130 -125 -227 -20 -60 -28 -71 -66 -93 -57 -34 -87 -74 -127
-176 -67 -166 -87 -284 -87 -522 0 -215 16 -307 91 -519 59 -167 69 -198 65
-198 -2 0 -16 19 -31 43 -38 57 -86 102 -136 127 -70 36 -106 5 -95 -83 4 -28
14 -63 22 -80 33 -62 -4 -44 -101 49 -118 113 -158 142 -245 179 -110 46 -193
26 -236 -57 -16 -31 -19 -84 -4 -93 6 -4 8 -10 5 -15 -9 -14 40 -103 88 -163
64 -78 139 -146 260 -235 59 -43 104 -81 101 -85 -3 -3 -20 -1 -37 4 -172 49
-305 -92 -192 -205 74 -74 236 -121 417 -120 l117 0 7 -45 c18 -131 75 -374
101 -428 23 -49 55 -70 136 -88 264 -60 1165 -23 1316 55 65 33 69 51 97 403
5 71 7 77 28 77 26 0 155 32 201 50 17 6 31 11 32 11 7 -2 144 76 181 103 62
44 116 120 108 151 -8 33 -46 56 -101 63 -25 2 -45 7 -45 11 0 3 21 19 48 34
123 72 278 209 341 300 79 115 79 222 1 262 -39 20 -85 19 -164 -5 -58 -18
-174 -87 -214 -126 -12 -13 -42 -20 -42 -10 0 2 15 33 34 68 40 74 66 180 50
206 -20 32 -57 25 -129 -22 -37 -26 -69 -46 -70 -46 -2 0 15 44 37 98 68 165
109 325 109 418 -1 151 -33 207 -253 430 -154 156 -168 174 -168 206 0 58 -28
198 -54 273 -78 226 -153 304 -296 311 -36 2 -81 -1 -100 -5z m149 -37 c98
-29 164 -115 215 -284 22 -72 59 -260 51 -260 -3 0 -107 69 -112 74 -2 1 -9
39 -17 83 -20 115 -40 142 -30 43 12 -138 19 -125 -61 -128 -38 -1 -104 -6
-145 -11 -41 -6 -78 -7 -82 -3 -3 4 -14 52 -23 107 -10 55 -26 134 -38 175
-25 93 -25 124 -1 151 24 27 48 39 104 55 61 17 78 17 139 -2z m-334 -94 c19
-19 42 -55 51 -83 21 -63 63 -303 55 -314 -14 -21 -315 -113 -327 -100 -3 2
-16 47 -30 98 -13 52 -40 127 -59 168 -19 40 -35 78 -35 85 0 6 11 34 24 62
36 78 134 128 239 120 38 -2 55 -10 82 -36z m-410 -151 c20 -18 47 -51 61 -76
31 -51 84 -223 84 -267 -1 -29 -6 -34 -81 -69 -44 -21 -83 -45 -86 -53 -9 -25
38 -123 81 -167 49 -50 137 -97 182 -97 46 0 65 -30 58 -89 -9 -73 -11 -75
-40 -52 -44 35 -105 25 -146 -23 -22 -26 -48 -109 -48 -153 0 -43 -11 -42 -49
5 -29 37 -30 41 -24 113 5 74 5 76 -51 208 -76 178 -119 264 -173 338 -50 71
-67 83 -117 83 -26 0 -36 4 -36 15 0 27 69 186 95 221 47 61 115 93 202 94 45
0 58 -5 88 -31z m954 -304 c88 -65 369 -349 418 -423 24 -35 47 -80 53 -100
15 -57 12 -149 -9 -237 -70 -290 -230 -602 -455 -891 -82 -105 -108 -171 -114
-294 -2 -52 -9 -98 -15 -102 -6 -3 -56 -12 -111 -19 -113 -13 -510 -7 -681 11
-144 15 -276 41 -280 54 -33 115 -66 196 -151 371 -131 270 -179 393 -231 584
-22 83 -26 123 -30 301 -6 233 5 326 59 487 59 179 127 251 228 240 38 -4 51
-12 83 -48 21 -24 54 -72 74 -107 62 -110 164 -353 170 -404 6 -52 6 -52 -31
-38 -55 21 -117 -37 -139 -129 -13 -57 -26 -63 -62 -27 -33 33 -40 69 -26 128
15 66 14 70 -8 63 -29 -9 -79 52 -140 173 -33 64 -56 83 -45 35 4 -16 19 -52
35 -82 16 -30 27 -56 25 -58 -2 -3 -18 3 -35 11 -16 9 -36 16 -42 16 -23 0 32
-47 86 -73 69 -35 93 -64 87 -111 -4 -33 -7 -36 -36 -36 -17 0 -48 4 -68 9
-21 5 -38 5 -38 1 0 -14 16 -20 82 -34 34 -7 64 -18 66 -24 2 -6 -11 -18 -28
-27 -40 -21 -33 -29 14 -17 29 8 40 7 58 -7 13 -10 49 -30 82 -44 56 -26 59
-26 93 -11 22 11 44 34 61 65 l28 47 22 -23 c12 -12 22 -31 22 -41 0 -23 -49
-110 -111 -194 -53 -74 -65 -108 -23 -69 40 37 111 140 140 204 23 49 29 56
48 50 49 -15 118 -17 142 -4 27 14 74 85 74 112 0 24 21 32 35 14 18 -25 63
-38 103 -31 23 5 51 22 80 51 50 50 113 76 208 87 89 11 110 -1 124 -68 15
-75 35 -74 27 2 -3 31 -9 67 -13 80 -6 19 -3 22 24 22 38 0 82 16 82 30 0 7
-19 9 -59 4 -77 -8 -122 7 -165 58 l-35 41 44 29 c67 44 59 68 -9 29 -53 -31
-86 -39 -86 -22 0 5 9 28 20 52 20 46 27 129 10 129 -5 0 -12 -12 -16 -27 -19
-85 -27 -104 -54 -127 -44 -36 -162 -60 -261 -53 -100 8 -222 54 -268 101 -18
19 -31 39 -27 44 3 5 28 12 56 14 65 7 189 68 229 113 19 22 31 47 31 65 0 41
19 55 110 79 104 28 180 38 306 40 l102 1 61 -45z m-397 -471 c-4 -51 -11 -74
-23 -74 -5 0 -9 7 -9 16 0 25 -56 74 -84 74 -34 0 -91 -58 -104 -107 -10 -34
-11 -30 -7 37 2 41 4 76 4 78 1 1 34 3 74 3 39 1 86 5 102 9 45 11 50 7 47
-36z m212 -64 c7 0 20 -6 29 -12 15 -11 5 -13 -55 -15 -40 -1 -95 -9 -123 -17
-27 -8 -51 -14 -53 -12 -1 2 0 16 4 31 5 22 11 25 28 20 49 -16 75 -16 102 -1
16 8 35 13 42 11 8 -3 19 -5 26 -5z m-447 -102 c-3 -7 -5 -2 -5 12 0 14 2 19
5 13 2 -7 2 -19 0 -25z"/>
<path d="M3473 4226 c-53 -64 -125 -194 -160 -288 -55 -150 -64 -186 -70 -313
-6 -127 6 -217 33 -251 14 -18 15 -16 10 21 -22 171 -19 252 19 445 10 47 101
230 166 330 27 42 49 80 49 83 0 17 -21 4 -47 -27z"/>
<path d="M3005 4078 c-42 -63 -119 -149 -164 -183 -21 -17 -45 -39 -51 -49
-20 -31 77 29 133 83 41 40 127 164 127 184 0 19 -20 3 -45 -35z"/>
<path d="M3336 3753 c-10 -66 -7 -153 10 -216 16 -63 76 -191 94 -202 23 -14
19 4 -15 76 -50 108 -68 186 -63 290 2 61 -1 89 -8 89 -6 0 -14 -17 -18 -37z"/>
<path d="M2898 3321 c42 -37 132 -64 227 -69 50 -2 88 -2 85 1 -3 2 -62 16
-132 31 -69 14 -143 33 -165 41 l-38 16 23 -20z"/>
<path d="M3820 3249 c-25 -4 -69 -8 -98 -8 -38 -1 -52 -5 -50 -13 7 -20 83
-21 162 -3 125 27 114 47 -14 24z"/>
<path d="M3209 3183 c-3 -26 4 -99 11 -117 6 -15 9 1 9 52 1 42 -3 72 -9 72
-5 0 -10 -3 -11 -7z"/>
<path d="M326 5564 c-20 -19 -20 -24 -2 -24 7 0 16 9 19 20 6 24 3 25 -17 4z"/>
<path d="M290 5505 c-10 -12 -10 -19 -2 -27 9 -9 12 -9 12 -1 0 6 7 13 17 15
14 3 14 4 1 16 -13 10 -18 9 -28 -3z"/>
<path d="M0 2191 l0 -109 43 -7 c80 -13 274 -64 369 -99 187 -67 332 -145 468
-250 232 -178 442 -469 565 -781 95 -240 151 -561 144 -819 l-4 -126 107 0
106 0 8 67 c9 92 -2 340 -20 443 -57 315 -154 583 -304 840 -218 374 -556 654
-982 817 -99 37 -365 110 -467 127 l-33 6 0 -109z"/>
<path d="M2490 2221 c0 -13 8 -21 23 -23 19 -3 22 -10 25 -61 2 -46 0 -58 -14
-64 -10 -4 -22 0 -29 10 -17 23 -42 21 -48 -3 -8 -31 19 -50 68 -50 75 0 75 0
75 111 l0 99 -50 0 c-43 0 -50 -3 -50 -19z"/>
<path d="M2612 2138 l3 -103 65 0 65 0 3 103 3 102 -26 0 c-25 0 -25 -1 -25
-80 0 -73 -2 -80 -20 -80 -18 0 -20 7 -20 80 0 79 0 80 -25 80 l-26 0 3 -102z"/>
<path d="M2770 2134 c0 -93 2 -105 16 -100 9 3 20 6 24 6 5 0 10 21 12 48 l3
47 24 -52 c19 -42 28 -53 47 -53 23 0 24 3 24 74 0 40 3 88 6 105 6 29 5 31
-25 31 -30 0 -31 -2 -32 -42 l0 -43 -22 43 c-17 34 -26 42 -49 42 l-28 0 0
-106z"/>
<path d="M2942 2218 c2 -15 11 -24 27 -26 22 -4 23 -6 19 -78 -5 -79 0 -89 32
-79 18 6 20 15 20 80 0 69 1 74 23 77 14 2 23 11 25 26 3 21 1 22 -73 22 -74
0 -76 -1 -73 -22z"/>
<path d="M3116 2228 c-3 -7 -7 -55 -11 -105 l-6 -93 25 0 c21 0 25 5 28 33 2
24 8 33 26 35 19 3 22 -1 22 -32 0 -32 3 -36 25 -36 l26 0 -3 103 -3 102 -63
3 c-44 2 -63 -1 -66 -10z m84 -63 c0 -18 -5 -25 -20 -25 -15 0 -20 7 -20 25 0
18 5 25 20 25 15 0 20 -7 20 -25z"/>
<path d="M3277 2233 c-4 -3 -7 -28 -7 -54 0 -52 2 -54 70 -61 31 -4 33 -32 3
-36 -13 -2 -23 1 -23 7 0 6 -12 11 -26 11 -23 0 -25 -3 -22 -32 l3 -33 63 -3
c59 -3 63 -2 72 23 24 63 9 94 -49 102 -26 4 -41 11 -41 20 0 19 29 28 43 14
6 -6 19 -11 29 -11 13 0 18 8 18 30 l0 30 -63 0 c-35 0 -67 -3 -70 -7z"/>
<path d="M3516 2225 c-10 -28 -7 -82 7 -93 6 -6 28 -12 47 -14 43 -4 57 -38
16 -38 -14 0 -26 5 -26 10 0 13 -37 13 -45 -1 -4 -5 -4 -21 -1 -35 6 -22 11
-24 64 -24 32 0 63 5 70 12 7 7 12 31 12 55 0 46 -17 63 -64 63 -19 0 -26 5
-26 20 0 13 7 20 20 20 11 0 20 -4 20 -10 0 -5 12 -10 26 -10 22 0 25 4 22 28
-3 26 -5 27 -69 30 -54 2 -68 0 -73 -13z"/>
<path d="M3676 2232 c-7 -12 -4 -180 4 -192 4 -7 33 -10 71 -8 l64 3 3 103 3
102 -70 0 c-38 0 -72 -4 -75 -8z m92 -94 c-2 -48 -7 -63 -18 -63 -11 0 -16 15
-18 63 -3 57 -1 62 18 62 19 0 21 -5 18 -62z"/>
<path d="M3840 2134 c0 -104 0 -105 23 -102 19 3 22 10 25 56 3 50 13 65 28
40 5 -7 11 -5 21 7 7 11 14 16 14 12 1 -4 3 -11 4 -17 1 -5 3 -30 4 -55 1 -41
3 -45 26 -45 l25 0 0 105 0 105 -30 0 c-20 0 -33 -7 -41 -22 l-12 -22 -17 22
c-10 12 -30 22 -44 22 l-26 0 0 -106z"/>
<path d="M4032 2138 l3 -103 65 0 65 0 3 103 3 102 -71 0 -71 0 3 -102z m88
-3 c0 -58 -2 -65 -20 -65 -18 0 -20 7 -20 65 0 58 2 65 20 65 18 0 20 -7 20
-65z"/>
<path d="M4197 2233 c-4 -3 -7 -28 -7 -54 0 -51 8 -59 61 -59 22 0 29 -5 29
-20 0 -13 -7 -20 -20 -20 -11 0 -20 5 -20 10 0 6 -12 10 -26 10 -23 0 -25 -3
-22 -32 3 -33 3 -33 62 -36 32 -2 63 1 67 5 13 13 20 86 10 101 -4 8 -27 16
-50 19 -26 4 -41 11 -41 20 0 19 29 28 43 14 6 -6 19 -11 29 -11 13 0 18 8 18
30 l0 30 -63 0 c-35 0 -67 -3 -70 -7z"/>
<path d="M2307 1797 c-23 -17 -36 -88 -37 -187 0 -98 6 -126 28 -135 23 -9 33
7 48 77 18 84 17 113 -2 73 -13 -28 -14 -22 -8 71 6 104 1 124 -29 101z"/>
<path d="M3512 1780 c-4 -12 -12 -20 -16 -18 -23 8 -39 -81 -40 -212 0 -148
11 -204 49 -247 l25 -28 25 28 c23 26 25 36 25 121 0 85 2 94 20 99 15 4 20 0
20 -17 0 -35 28 -66 59 -66 19 0 39 12 63 38 20 20 42 42 49 48 8 6 24 23 37
38 30 36 36 29 17 -17 -31 -74 -20 -153 22 -163 35 -9 53 4 85 62 l28 49 0
-45 c0 -54 31 -110 60 -110 23 0 42 27 66 97 l18 52 32 -34 c17 -19 41 -35 52
-35 30 0 74 41 100 94 25 50 36 56 50 29 7 -12 4 -27 -9 -52 -35 -66 -15 -131
41 -131 51 0 77 74 50 144 -7 20 -6 26 9 31 23 7 56 43 48 51 -3 4 -18 -3 -33
-15 -15 -11 -33 -21 -40 -21 -22 0 -75 73 -72 99 4 34 26 38 34 7 5 -23 34
-38 34 -18 0 20 -34 52 -55 52 -37 0 -58 -27 -52 -69 8 -65 -75 -203 -105
-173 -6 6 -13 35 -15 64 -4 49 -2 57 36 107 23 29 41 57 41 61 0 16 -27 28
-83 34 -53 7 -57 9 -51 30 5 22 -16 56 -36 56 -15 0 -69 -50 -75 -70 -4 -11
-15 -20 -25 -20 -25 0 -50 -10 -50 -21 0 -5 12 -9 26 -9 25 0 26 -2 20 -37
-18 -100 -65 -211 -93 -221 -19 -6 -16 50 7 138 22 85 16 101 -30 83 -29 -11
-30 -10 -28 14 4 32 -24 53 -49 37 -23 -14 -29 -79 -11 -112 11 -21 10 -26 -7
-39 -19 -13 -20 -12 -25 34 -7 55 -22 88 -50 103 -49 26 -90 -7 -90 -74 0 -35
-5 -48 -22 -60 -25 -18 -28 -16 -53 42 -18 41 -18 45 -1 92 21 59 18 113 -7
118 -10 2 -20 -5 -25 -18z m24 -71 l-15 -34 6 50 c7 60 17 80 21 44 2 -15 -4
-42 -12 -60z m584 57 c0 -25 -12 -46 -26 -46 -16 0 -16 5 -8 38 7 24 34 31 34
8z m-48 -23 c-12 -21 -43 -27 -35 -6 4 10 8 11 13 3 5 -8 9 -7 13 4 4 9 9 16
12 16 3 0 2 -8 -3 -17z m89 -77 c-22 -36 -27 -51 -12 -42 5 4 7 -4 3 -16 -3
-14 -7 -18 -10 -9 -3 8 -23 -41 -44 -108 -22 -66 -45 -121 -50 -121 -7 0 -9
38 -6 108 4 95 8 113 32 155 31 52 49 66 84 67 l24 0 -21 -34z m-83 -2 c-7
-15 -14 -21 -16 -15 -5 16 5 41 17 41 7 0 6 -10 -1 -26z m162 12 c0 -21 -49
-75 -50 -56 0 9 -6 5 -15 -10 -16 -29 -20 -19 -4 11 5 11 14 17 18 14 5 -2 14
9 21 25 13 31 30 40 30 16z m-411 -13 c0 -10 -4 -27 -9 -38 -7 -16 -9 -13 -9
18 -1 20 4 37 9 37 6 0 10 -8 9 -17z m-113 -18 c24 -37 31 -103 10 -111 -29
-11 -49 16 -43 58 4 32 2 38 -14 38 -10 0 -19 6 -19 13 0 35 43 37 66 2z
m-176 -102 c0 -7 -6 -10 -15 -7 -8 4 -15 18 -15 33 1 25 1 25 15 7 8 -11 15
-26 15 -33z m338 -18 c-3 -3 -9 2 -12 12 -6 14 -5 15 5 6 7 -7 10 -15 7 -18z
m-9 -35 c0 -10 -3 -8 -9 5 -7 17 -9 16 -10 -10 -1 -16 -4 -24 -7 -17 -3 7 -2
25 2 39 5 21 8 24 16 12 5 -7 8 -21 8 -29z m-166 18 c11 -9 14 -18 8 -27 -11
-17 -27 -8 -34 19 -6 23 2 25 26 8z m-149 -20 c10 -37 7 -115 -5 -145 l-12
-28 -7 30 c-4 17 -10 60 -14 98 -5 60 -3 67 13 67 11 0 21 -9 25 -22z m845
-53 c0 -16 -3 -36 -8 -44 -7 -11 -11 -10 -20 7 -14 26 -14 43 0 79 10 26 12
27 19 8 5 -11 9 -33 9 -50z"/>
<path d="M4525 1784 c-13 -13 -15 -37 -13 -143 3 -119 4 -126 24 -129 20 -3
21 3 27 105 7 109 1 183 -14 183 -4 0 -15 -7 -24 -16z"/>
<path d="M2518 1763 c-9 -10 -23 -34 -32 -53 -14 -29 -14 -31 -1 -16 11 15 15
16 15 5 1 -8 7 1 16 20 27 64 25 24 -5 -75 -16 -55 -30 -89 -30 -77 -1 12 3
33 9 47 5 14 6 26 1 26 -11 0 -31 -94 -31 -149 0 -79 44 -116 85 -71 16 18 16
20 2 20 -10 0 -17 -4 -17 -10 0 -5 -4 -10 -9 -10 -19 0 -21 38 -6 109 18 88
18 95 0 56 -17 -34 -14 -15 11 70 22 76 38 96 19 24 -8 -29 -12 -55 -10 -57 7
-7 36 107 33 130 -4 29 -29 34 -50 11z"/>
<path d="M2393 1754 c-12 -32 -9 -182 5 -195 24 -25 33 6 30 106 -2 68 -7 100
-15 103 -7 2 -16 -4 -20 -14z"/>
<path d="M0 1647 l0 -112 63 -24 c55 -21 168 -75 237 -113 149 -82 334 -248
448 -402 70 -94 154 -261 191 -381 48 -155 64 -269 65 -452 l1 -163 102 0 102
0 8 38 c4 20 7 105 6 187 -1 229 -50 422 -171 665 -160 324 -420 579 -770 754
-76 38 -262 116 -277 116 -3 0 -5 -51 -5 -113z"/>
<path d="M2860 1746 c0 -18 17 -29 30 -21 8 5 7 11 -1 21 -15 18 -29 18 -29 0z"/>
<path d="M2655 1691 c-40 -24 -57 -52 -78 -128 -20 -74 -20 -76 -6 -68 6 4 17
-2 25 -14 19 -27 46 -27 69 -1 18 20 19 20 31 -17 13 -36 37 -63 57 -63 5 0
21 13 37 29 28 28 30 28 46 10 22 -25 65 -24 91 0 12 11 29 41 39 68 22 61 23
62 39 39 12 -16 11 -24 -5 -57 -36 -70 -17 -129 42 -129 50 0 77 64 54 129
-12 37 -12 41 4 46 22 7 55 43 47 51 -3 4 -18 -3 -33 -15 -15 -11 -34 -21 -43
-21 -22 1 -73 75 -69 103 4 29 32 29 36 0 2 -13 10 -23 18 -23 11 0 13 6 8 23
-8 27 -22 37 -51 37 -37 0 -52 -25 -51 -83 2 -67 -42 -170 -69 -165 -15 3 -18
14 -18 68 1 36 3 87 5 115 4 40 2 50 -12 53 -16 3 -37 -47 -54 -128 -11 -57
-35 -110 -50 -110 -18 0 -17 27 1 110 22 101 20 135 -10 148 -36 17 -65 15
-100 -7z m59 -48 c-10 -43 -56 -143 -65 -143 -13 0 -10 50 5 93 24 65 73 106
60 50z m47 -19 c-5 -16 -10 -21 -10 -12 -1 18 10 51 15 45 2 -1 -1 -16 -5 -33z
m-149 -26 c-7 -7 -12 -8 -12 -2 0 14 12 26 19 19 2 -3 -1 -11 -7 -17z m18 -25
c-11 -17 -11 -17 -6 0 3 10 7 26 7 35 1 15 2 15 6 0 2 -10 -1 -25 -7 -35z
m117 -15 c-3 -8 -6 -5 -6 6 -1 11 2 17 5 13 3 -3 4 -12 1 -19z m302 -123 c0
-16 -3 -36 -8 -44 -7 -11 -11 -10 -20 7 -14 26 -14 43 0 79 10 26 12 27 19 8
5 -11 9 -33 9 -50z"/>
<path d="M6628 1546 c-19 -14 -24 -36 -10 -36 10 0 42 33 42 43 0 11 -13 8
-32 -7z"/>
<path d="M6554 1505 c-4 -8 -11 -15 -16 -15 -5 0 -21 -9 -35 -20 -14 -11 -34
-20 -44 -20 -9 0 -19 -4 -21 -9 -1 -4 -24 -18 -50 -29 -28 -12 -48 -28 -48
-36 0 -9 -11 -18 -25 -22 -29 -7 -56 -34 -34 -34 31 0 59 13 59 27 0 8 7 13
18 11 12 -2 18 -15 20 -42 2 -28 9 -40 23 -43 10 -3 19 -14 19 -24 0 -10 4
-21 10 -24 13 -8 90 32 97 51 3 8 13 12 23 9 20 -6 55 29 45 45 -5 9 -1 10 13
6 14 -5 28 1 47 18 15 14 36 26 48 28 17 2 21 9 19 29 -1 16 6 33 23 49 14 13
25 32 25 43 0 16 -5 19 -31 13 -45 -9 -100 -36 -130 -63 -19 -18 -29 -21 -34
-13 -6 9 -10 9 -16 -1 -4 -7 -12 -10 -16 -5 -4 4 6 20 23 34 31 27 35 52 8 52
-8 0 -17 -7 -20 -15z"/>
<path d="M4510 1436 c0 -16 27 -29 41 -20 19 11 9 34 -16 34 -15 0 -25 -6 -25
-14z"/>
<path d="M6225 1320 c-3 -5 1 -10 10 -10 9 0 13 5 10 10 -3 6 -8 10 -10 10 -2
0 -7 -4 -10 -10z"/>
<path d="M6143 1282 c-6 -4 -15 -20 -18 -35 -6 -21 -12 -27 -24 -22 -29 12
-34 10 -48 -15 -7 -14 -18 -24 -25 -23 -7 1 -23 -12 -35 -29 -27 -39 -15 -63
26 -53 31 8 42 24 35 48 -5 15 -1 18 18 16 29 -3 60 10 52 22 -3 5 3 12 13 16
10 4 24 13 31 20 12 11 12 16 0 30 -7 9 -11 18 -10 20 7 9 -4 12 -15 5z"/>
<path d="M6180 1275 c0 -3 9 -23 20 -45 11 -22 20 -47 20 -57 1 -17 2 -17 15
1 19 26 19 50 0 42 -10 -3 -20 6 -31 29 -15 32 -24 43 -24 30z"/>
<path d="M62 1244 c-25 -17 -52 -64 -52 -90 0 -9 44 -62 99 -118 54 -56 126
-139 161 -186 185 -251 250 -542 185 -828 -5 -22 -4 -22 98 -22 l104 0 11 82
c45 316 -29 608 -221 879 -170 239 -306 339 -385 283z"/>
<path d="M6735 1109 c-132 -66 -151 -77 -164 -93 -8 -9 -19 -16 -26 -16 -18 0
-66 -66 -71 -98 -3 -20 -2 -23 5 -12 19 28 34 -4 27 -54 -7 -47 -8 -48 -63
-50 -10 -1 -23 -8 -30 -16 -10 -13 -12 -10 -13 17 0 25 6 35 27 45 36 18 41
38 9 38 -33 0 -36 35 -4 46 18 5 19 8 6 15 -11 6 -29 -4 -64 -38 -27 -25 -44
-43 -37 -39 7 4 17 -2 23 -14 13 -24 3 -47 -13 -31 -6 6 -19 11 -28 11 -10 0
-20 6 -22 13 -4 10 -6 10 -6 0 -1 -7 -12 -13 -25 -13 -14 0 -27 -4 -31 -10 -3
-5 -13 -6 -22 -3 -10 4 -14 2 -10 -4 4 -6 -5 -21 -19 -32 -15 -12 -22 -21 -15
-21 22 0 10 -18 -23 -34 -19 -9 -44 -29 -55 -45 -16 -22 -26 -27 -46 -23 -18
3 -25 0 -23 -9 2 -7 -2 -13 -7 -14 -14 0 -73 -55 -59 -55 5 0 15 5 21 11 13
13 53 -5 53 -24 0 -18 -37 -47 -60 -47 -28 0 -25 -18 5 -32 14 -6 25 -20 26
-32 0 -17 3 -16 14 9 8 17 14 24 15 18 0 -20 19 -15 67 17 24 17 55 30 68 30
14 0 32 11 45 27 32 41 81 67 101 55 13 -9 23 -5 45 18 16 16 36 30 45 30 9 0
22 7 29 15 7 8 21 15 31 15 12 0 19 7 19 20 0 13 7 20 20 20 10 0 24 9 30 20
13 24 30 26 30 5 0 -11 4 -13 18 -5 9 5 46 23 82 39 36 16 73 39 82 50 17 20
35 26 66 22 9 -1 12 30 12 129 l0 131 -29 -20 c-27 -20 -61 -20 -61 -1 0 5 20
16 45 26 25 9 45 21 45 25 0 11 8 14 -85 -32z"/>
<path d="M5875 1110 c-3 -5 -17 -10 -30 -10 -14 0 -39 -13 -56 -28 -29 -25
-30 -30 -18 -50 15 -24 6 -40 -14 -24 -7 6 -18 7 -25 3 -9 -5 -8 -12 6 -26 16
-17 16 -21 3 -37 -14 -16 -16 -16 -29 3 -8 11 -20 18 -27 15 -7 -2 -17 0 -23
6 -6 6 -16 2 -30 -12 -11 -12 -24 -20 -29 -17 -17 11 -146 -86 -133 -99 13
-13 1 -54 -15 -54 -7 0 -18 -7 -25 -15 -7 -9 -19 -14 -27 -11 -7 3 -13 0 -13
-7 0 -23 -43 -50 -82 -51 -32 -1 -42 -7 -57 -33 -23 -37 -31 -42 -67 -45 -15
-2 -38 -12 -50 -23 -43 -39 -53 -45 -68 -39 -24 9 -45 -18 -39 -50 5 -23 9
-27 29 -22 25 7 31 -3 14 -20 -6 -6 -5 -15 1 -24 8 -11 12 -12 16 -2 16 39 71
56 65 20 -4 -22 37 -27 62 -8 10 8 31 27 46 43 16 15 37 27 48 27 11 0 31 9
45 20 14 11 31 20 37 20 7 0 39 17 70 38 32 20 87 53 122 72 34 19 72 44 84
55 11 11 38 29 59 40 21 11 46 32 54 47 9 16 22 28 30 28 9 0 11 6 6 18 -24
59 -27 74 -17 84 14 14 61 -39 62 -70 0 -23 1 -23 28 -6 52 30 71 49 77 77 5
20 3 27 -8 27 -10 0 -13 7 -10 24 3 13 0 27 -6 30 -5 4 -8 13 -5 21 4 8 -1 17
-9 21 -8 3 -18 16 -21 30 -7 25 -20 31 -31 14z"/>
<path d="M5990 1000 c0 -5 5 -10 10 -10 6 0 10 5 10 10 0 6 -4 10 -10 10 -5 0
-10 -4 -10 -10z"/>
<path d="M6035 1000 c-3 -5 -1 -10 4 -10 6 0 11 5 11 10 0 6 -2 10 -4 10 -3 0
-8 -4 -11 -10z"/>
<path d="M0 416 l0 -249 21 19 c34 30 57 92 65 174 7 83 -14 173 -61 260 l-24
45 -1 -249z"/>
<path d="M6755 602 c-16 -9 -34 -23 -38 -29 -4 -7 -18 -13 -31 -13 -39 0 -176
-76 -176 -98 0 -7 -5 -10 -10 -7 -6 4 -30 -2 -53 -13 -23 -11 -50 -22 -59 -25
-10 -4 -18 -14 -18 -23 0 -16 2 -16 18 -1 23 21 94 19 88 -2 -3 -9 -8 -31 -11
-50 -7 -30 -5 -33 11 -27 18 7 18 6 1 -11 -13 -14 -21 -15 -35 -7 -12 8 -22 8
-34 0 -23 -14 -40 3 -40 38 0 35 -7 33 -45 -11 l-33 -38 -19 25 c-17 21 -21
22 -26 9 -3 -9 -24 -25 -45 -35 -22 -11 -40 -22 -40 -26 0 -5 -9 -8 -20 -8
-11 0 -20 -4 -20 -9 0 -5 -29 -22 -64 -39 -35 -17 -68 -37 -73 -44 -4 -7 -24
-21 -43 -32 -19 -10 -39 -24 -45 -30 -5 -6 -22 -12 -37 -14 -21 -2 -126 -57
-146 -76 -2 -3 70 -5 162 -5 103 0 166 4 166 10 0 6 8 6 20 -1 16 -9 24 -7 36
5 29 28 56 38 65 24 4 -7 11 -10 16 -6 4 4 2 17 -5 27 -14 23 -15 30 -3 30 5
0 12 -10 16 -22 l8 -23 4 25 c3 13 0 26 -6 28 -6 2 -11 14 -11 27 0 18 7 23
37 28 20 4 42 2 49 -4 9 -7 15 -6 21 4 4 7 16 16 26 20 9 3 17 13 17 22 0 8 4
15 9 15 11 0 21 -25 21 -51 0 -31 27 -33 68 -6 20 13 49 27 64 31 15 3 33 12
40 20 20 20 74 46 95 46 10 0 38 14 63 30 25 16 48 30 53 30 14 0 48 41 42 50
-4 6 3 10 14 10 20 0 21 5 21 125 0 139 -3 143 -65 107z"/>
<path d="M5840 515 c-7 -8 -28 -15 -46 -15 -19 0 -34 -5 -34 -10 0 -14 -89
-70 -111 -70 -9 0 -37 -18 -62 -40 -25 -22 -49 -40 -54 -40 -4 0 -28 -16 -53
-35 -85 -65 -131 -95 -146 -95 -7 0 -14 -4 -14 -9 0 -5 -19 -19 -43 -30 -40
-19 -80 -72 -82 -108 0 -6 -8 -20 -18 -30 -24 -27 -22 -33 12 -33 25 0 28 3
24 22 l-5 23 20 -22 c28 -32 130 -33 157 -3 10 11 26 20 37 20 10 0 18 5 18
10 0 6 22 22 50 38 27 15 50 33 50 40 0 6 8 12 19 12 10 0 24 7 31 15 7 8 18
15 24 15 6 0 25 14 43 30 18 17 39 30 47 30 9 0 16 4 16 8 0 5 22 21 49 35 60
33 67 42 74 94 3 23 15 56 27 73 l23 32 -32 -16 c-29 -16 -31 -16 -31 2 0 10
9 28 20 40 11 11 16 23 11 26 -5 3 -14 -1 -21 -9z"/>
<path d="M5919 457 c-23 -17 -39 -52 -39 -82 l0 -27 31 26 c17 14 35 26 40 26
17 0 9 19 -11 25 -30 10 -25 28 6 21 19 -5 25 -3 22 6 -6 18 -30 20 -49 5z"/>
<path d="M3300 440 c0 -5 7 -10 15 -10 8 0 15 5 15 10 0 6 -7 10 -15 10 -8 0
-15 -4 -15 -10z"/>
<path d="M2779 411 c-40 -40 -36 -93 10 -128 18 -14 91 -18 91 -5 0 5 -12 7
-28 4 -64 -9 -105 67 -63 119 41 50 137 15 129 -48 -5 -38 -23 -32 -26 9 -3
30 -7 37 -25 36 -46 0 -65 -8 -70 -30 -11 -41 27 -77 62 -58 11 6 21 6 28 -1
17 -17 46 15 45 52 -2 75 -97 106 -153 50z m89 -59 c4 -29 -26 -42 -44 -18
-17 24 -6 48 20 44 13 -2 22 -12 24 -26z"/>
<path d="M3780 430 c0 -5 12 -10 26 -10 23 0 25 -3 22 -42 -3 -39 -6 -43 -33
-48 -30 -6 -30 -6 -7 -18 16 -9 27 -10 42 -2 17 9 20 21 20 70 l0 60 -35 0
c-19 0 -35 -4 -35 -10z"/>
<path d="M3890 425 c-18 -22 -5 -44 35 -61 53 -22 40 -48 -18 -37 -34 7 -35
-4 -2 -17 37 -14 75 3 75 34 0 19 -8 27 -35 36 -47 15 -46 40 1 40 21 0 33 4
29 10 -10 15 -71 12 -85 -5z"/>
<path d="M4010 375 c0 -51 3 -65 15 -65 9 0 15 9 15 25 0 21 5 25 30 25 17 0
30 5 30 10 0 6 -13 10 -30 10 -23 0 -30 4 -30 20 0 16 7 20 35 20 19 0 35 5
35 10 0 6 -22 10 -50 10 l-50 0 0 -65z"/>
<path d="M5030 430 c0 -5 5 -10 10 -10 6 0 10 5 10 10 0 6 -4 10 -10 10 -5 0
-10 -4 -10 -10z"/>
<path d="M3478 418 c-3 -7 -3 -32 0 -56 5 -46 34 -74 55 -53 8 8 6 11 -6 11
-13 0 -17 9 -17 34 0 19 6 36 12 38 9 3 8 9 -4 21 -20 20 -34 22 -40 5z"/>
<path d="M2960 338 c0 -39 4 -68 10 -68 6 0 10 9 10 21 0 18 4 20 25 15 17 -4
31 0 45 14 41 41 13 89 -52 87 l-38 -1 0 -68z m80 33 c7 -15 6 -23 -6 -35 -8
-9 -17 -16 -19 -16 -2 0 -11 7 -19 16 -18 18 -6 54 19 54 8 0 19 -9 25 -19z"/>
<path d="M3094 395 c-9 -21 0 -90 11 -90 6 0 11 16 13 35 2 19 10 39 18 43 22
13 16 25 -12 25 -14 0 -28 -6 -30 -13z"/>
<path d="M3186 391 c-38 -42 8 -102 60 -79 13 6 24 15 24 19 0 4 3 14 6 22 7
19 -29 57 -54 57 -11 0 -27 -9 -36 -19z m62 -30 c4 -29 -15 -43 -40 -30 -21
11 -23 30 -6 47 19 19 43 10 46 -17z"/>
<path d="M3300 350 c0 -47 -3 -60 -15 -60 -8 0 -15 -4 -15 -10 0 -18 39 -11
50 9 5 11 10 42 10 70 0 39 -4 51 -15 51 -12 0 -15 -13 -15 -60z"/>
<path d="M3370 392 c-29 -24 -21 -68 15 -82 27 -10 55 -4 55 12 0 6 -7 8 -15
4 -18 -6 -45 2 -45 15 0 5 16 9 35 9 28 0 35 4 35 20 0 18 -26 40 -48 40 -5 0
-20 -8 -32 -18z m51 -17 c-1 -5 -10 -11 -21 -11 -20 -1 -26 7 -13 20 10 9 34
3 34 -9z"/>
<path d="M3576 397 c-20 -15 -25 -62 -8 -79 14 -14 59 -13 77 2 20 17 19 60
-2 76 -23 17 -45 17 -67 1z m58 -30 c9 -15 7 -21 -8 -32 -22 -17 -46 -4 -46
25 0 35 34 39 54 7z"/>
<path d="M6410 371 c-13 -25 -13 -61 0 -61 13 0 30 34 30 59 0 26 -16 27 -30
2z"/>
<path d="M6302 368 c-15 -15 -16 -51 0 -46 6 2 16 12 22 21 14 22 -4 43 -22
25z"/>
<path d="M3693 293 c15 -2 39 -2 55 0 15 2 2 4 -28 4 -30 0 -43 -2 -27 -4z"/>
<path d="M6810 135 c0 -36 -61 -94 -88 -84 -13 5 -25 3 -32 -6 -7 -8 -16 -12
-21 -9 -5 3 -9 -2 -9 -11 0 -12 -6 -15 -19 -10 -11 3 -22 1 -26 -5 -4 -7 29
-10 99 -10 l106 0 0 80 c0 44 -2 80 -5 80 -3 0 -5 -11 -5 -25z"/>
<path d="M5130 58 c0 -10 17 -10 24 0 3 5 -1 9 -9 9 -8 0 -15 -4 -15 -9z"/>
<path d="M6216 61 c-4 -5 -2 -12 3 -15 5 -4 12 -2 15 3 4 5 2 12 -3 15 -5 4
-12 2 -15 -3z"/>
</g>
</svg>
