<?xml version="1.0" standalone="no"?>
<!DOCTYPE svg PUBLIC "-//W3C//DTD SVG 20010904//EN"
 "http://www.w3.org/TR/2001/REC-SVG-20010904/DTD/svg10.dtd">
<svg version="1.0" xmlns="http://www.w3.org/2000/svg"
 width="1080.000000pt" height="1080.000000pt" viewBox="0 0 1080.000000 1080.000000"
 preserveAspectRatio="xMidYMid meet">

<g transform="translate(0.000000,1080.000000) scale(0.100000,-0.100000)"
fill="#000000" stroke="none">
<path d="M8376 10185 c-18 -13 -18 -16 -4 -27 9 -7 43 -35 77 -61 72 -57 77
-81 31 -134 -24 -27 -28 -38 -20 -48 13 -16 31 -11 80 23 47 32 93 25 167 -24
42 -27 60 -35 71 -27 29 18 24 32 -29 81 -62 59 -61 70 16 131 56 43 68 72 32
79 -10 2 -51 -15 -92 -37 -41 -23 -86 -41 -101 -41 -16 0 -55 19 -93 45 -77
51 -108 61 -135 40z"/>
<path d="M9243 9904 c-8 -22 8 -52 71 -134 66 -85 74 -110 52 -156 -11 -24
-14 -47 -10 -74 7 -44 -7 -70 -37 -70 -20 0 -25 15 -9 25 6 3 10 15 10 26 0
26 -30 22 -45 -6 -6 -11 -39 -48 -75 -82 -55 -53 -63 -65 -54 -80 22 -36 64
-27 144 31 131 95 188 128 210 121 11 -4 44 -34 72 -68 28 -34 54 -64 57 -67
3 -3 33 -35 65 -72 61 -71 88 -83 106 -47 9 16 7 27 -9 52 -11 18 -36 61 -57
97 -20 36 -57 91 -81 122 -56 73 -55 94 5 147 26 23 72 64 103 91 97 85 134
160 81 160 -11 0 -80 -40 -155 -90 -178 -118 -173 -118 -295 0 -93 91 -134
112 -149 74z"/>
<path d="M4183 9313 l-93 -4 0 -94 c0 -92 1 -94 29 -114 25 -18 44 -21 138
-21 73 0 114 -4 124 -12 14 -12 15 -47 7 -303 -8 -247 -12 -292 -26 -302 -11
-9 -57 -13 -144 -13 -143 0 -128 -8 -143 81 -9 59 -20 63 -155 55 -66 -4 -126
-9 -134 -12 -10 -4 -16 -35 -21 -109 l-7 -104 39 -50 c47 -61 26 -58 478 -66
l340 -5 58 37 57 37 0 481 c0 419 -2 483 -16 503 -15 22 -18 22 -227 20 -117
-1 -254 -4 -304 -5z"/>
<path d="M5270 9310 c-295 -12 -347 -18 -379 -46 l-28 -24 -8 -226 -7 -226 27
-28 c15 -16 39 -33 54 -38 14 -6 123 -18 241 -27 118 -9 235 -20 260 -23 l45
-7 3 -79 c2 -49 -1 -83 -9 -92 -14 -17 -284 -21 -294 -3 -4 5 -10 31 -14 57
l-6 47 -125 3 c-169 4 -166 5 -173 -65 -4 -32 -11 -87 -16 -123 -10 -65 -10
-65 25 -118 l35 -53 402 3 402 3 47 34 c57 41 55 34 63 268 l5 172 -34 59
c-19 32 -41 64 -49 70 -12 11 -79 17 -439 41 -53 3 -99 9 -102 12 -4 3 -3 38
0 78 5 55 11 74 25 82 24 12 198 24 233 15 14 -3 26 -11 26 -16 0 -5 8 -28 18
-51 l17 -41 110 7 c76 5 119 12 140 24 l30 17 0 117 c0 76 -5 121 -12 128 -20
20 -153 49 -243 53 -47 2 -168 1 -270 -4z"/>
<path d="M5919 9308 c-1 -14 -1 -1047 0 -1062 1 -11 282 1 316 14 l25 10 0
204 c0 194 1 206 20 216 13 7 54 7 135 0 63 -6 120 -8 125 -5 6 3 10 52 10
110 0 85 -3 104 -16 109 -9 3 -62 6 -119 6 -57 0 -115 4 -129 10 -24 9 -26 14
-26 74 0 56 3 67 21 76 14 8 88 11 227 8 l207 -3 3 112 3 111 -53 6 c-29 3
-209 8 -400 11 -278 4 -348 3 -349 -7z"/>
<path d="M8423 9285 c-7 -20 14 -43 104 -112 40 -30 75 -64 78 -74 9 -26 -10
-55 -53 -84 -67 -44 -84 -61 -80 -81 6 -33 43 -27 134 21 64 34 95 45 115 41
15 -3 64 -30 109 -61 58 -40 90 -55 109 -53 41 5 36 31 -11 65 -120 86 -126
114 -43 190 30 28 55 58 55 66 0 38 -65 28 -154 -22 -68 -39 -93 -39 -147 2
-143 108 -202 136 -216 102z"/>
<path d="M5880 7796 c-82 -19 -140 -49 -190 -100 -49 -51 -61 -54 -107 -27
-123 76 -360 63 -527 -27 -65 -35 -162 -125 -187 -174 -21 -41 -35 -45 -82
-24 -95 42 -167 50 -278 31 -153 -26 -252 -69 -331 -143 -66 -61 -105 -122
-178 -275 l-60 -126 -57 -21 c-88 -33 -156 -85 -200 -153 -122 -192 -207 -428
-221 -617 -10 -135 -6 -546 6 -600 17 -77 53 -204 61 -215 4 -5 13 -30 20 -55
7 -25 54 -132 103 -238 50 -106 88 -196 84 -199 -3 -3 -38 25 -78 63 -111 106
-205 163 -294 180 -65 12 -124 -34 -124 -98 0 -26 49 -147 69 -171 39 -48 -26
-75 -75 -33 -46 41 -194 156 -199 156 -3 0 -47 28 -98 63 -81 56 -146 91 -262
143 -62 27 -172 48 -260 48 -75 0 -98 -4 -135 -23 -68 -35 -99 -69 -116 -128
-14 -47 -14 -57 0 -104 27 -89 53 -133 129 -210 69 -72 182 -172 217 -194 9
-5 58 -37 108 -70 102 -66 196 -122 317 -185 99 -52 116 -67 95 -80 -8 -5 -22
-7 -30 -4 -43 16 -206 26 -260 16 -138 -25 -220 -95 -220 -186 0 -45 3 -52 51
-97 86 -82 219 -134 444 -172 204 -36 389 -45 513 -27 35 5 70 6 78 3 16 -6
39 -81 49 -158 14 -107 130 -475 172 -548 26 -45 95 -94 156 -112 63 -19 201
-40 367 -56 174 -18 1028 -18 1280 -1 633 43 777 57 920 88 41 9 91 25 111 35
40 20 86 69 100 107 14 36 37 221 53 410 7 89 17 167 23 173 6 6 53 17 104 24
281 42 593 145 761 251 76 49 166 137 175 172 15 60 -36 100 -145 114 -90 12
-126 24 -116 39 3 6 44 28 89 49 284 131 612 369 699 509 30 48 56 127 56 170
0 53 -38 112 -90 141 -40 21 -56 24 -145 23 -172 -1 -384 -74 -562 -193 -50
-34 -75 -43 -97 -34 -23 9 -21 17 29 88 25 36 45 68 45 71 0 3 15 38 34 78 46
100 52 137 26 170 -12 15 -36 29 -56 33 -31 6 -54 -3 -170 -61 -74 -37 -137
-65 -140 -63 -3 3 34 84 81 179 47 96 85 181 85 189 0 9 6 24 14 35 7 11 31
70 52 130 37 105 39 115 38 230 0 119 -1 121 -39 200 -63 129 -214 269 -579
536 -196 143 -186 132 -196 219 -26 222 -102 434 -217 607 -83 124 -178 193
-309 227 -75 19 -301 20 -384 2z m360 -53 c121 -35 202 -93 271 -195 21 -31
39 -59 39 -61 0 -2 18 -37 40 -77 44 -81 80 -185 110 -323 22 -101 25 -137 10
-137 -5 0 -42 17 -82 38 -40 20 -84 42 -98 47 -21 8 -28 24 -47 100 -37 150
-53 195 -69 195 -20 0 -18 -36 7 -137 11 -47 19 -97 17 -112 l-3 -26 -140 -7
c-77 -4 -201 -12 -276 -18 -74 -6 -143 -8 -151 -5 -18 7 -38 55 -38 92 0 59
-66 298 -114 411 l-26 62 20 39 c33 66 80 91 225 122 102 21 214 18 305 -8z
m-728 -96 c107 -45 172 -158 218 -377 10 -47 26 -120 36 -163 21 -93 16 -101
-65 -117 -29 -5 -92 -23 -140 -39 -47 -16 -134 -36 -192 -45 -58 -10 -130 -23
-159 -31 -33 -9 -59 -11 -69 -5 -9 5 -25 37 -35 72 -38 129 -100 271 -153 350
-54 81 -55 83 -43 123 20 69 77 143 129 167 174 79 374 106 473 65z m-765
-243 c70 -33 152 -125 202 -228 53 -106 111 -270 111 -311 0 -33 -1 -34 -82
-60 -109 -35 -243 -98 -251 -118 -5 -15 1 -29 54 -126 66 -120 283 -244 452
-258 103 -9 136 -45 116 -131 -4 -20 -10 -49 -14 -64 -7 -34 -16 -34 -74 -5
-62 30 -150 30 -206 -1 -92 -50 -125 -99 -145 -217 -20 -114 -33 -119 -109
-43 -51 53 -52 53 -44 98 15 87 10 182 -13 220 -12 19 -46 82 -77 140 -49 94
-96 178 -138 249 -47 81 -143 207 -213 278 -90 94 -148 123 -241 123 l-54 0
26 58 c71 159 108 222 162 278 73 75 186 126 322 143 88 12 155 4 216 -25z
m1798 -428 c51 -23 207 -128 400 -269 316 -231 505 -405 564 -516 76 -143 47
-315 -112 -661 -163 -357 -361 -635 -686 -963 -182 -184 -208 -213 -238 -272
-47 -91 -65 -162 -64 -263 0 -120 -2 -128 -42 -141 -148 -47 -1136 -48 -1602
-1 -181 18 -351 41 -399 53 -52 14 -56 18 -76 82 -19 63 -128 281 -163 327
-35 47 -176 266 -253 393 -61 102 -202 380 -236 465 -107 268 -118 326 -125
664 -5 265 -5 270 22 385 57 247 162 473 260 559 125 110 330 121 437 24 39
-35 188 -215 188 -227 0 -3 11 -21 25 -39 14 -18 25 -35 25 -38 0 -3 48 -88
106 -189 81 -141 109 -200 121 -252 10 -43 12 -72 6 -78 -6 -6 -28 -5 -60 2
-69 16 -112 5 -170 -42 -57 -46 -92 -102 -108 -174 -12 -49 -13 -50 -45 -47
-43 3 -98 45 -116 88 -18 43 -18 88 1 152 9 29 13 57 10 62 -3 6 -23 10 -44
10 -34 0 -45 8 -103 68 -69 72 -134 157 -162 209 -17 34 -54 73 -68 73 -15 0
-8 -49 12 -86 11 -19 36 -59 55 -87 19 -29 35 -58 35 -66 0 -14 -6 -13 -82 16
-26 9 -50 14 -54 10 -16 -16 99 -87 184 -112 49 -15 139 -72 147 -93 7 -19
-15 -99 -31 -113 -9 -8 -32 -8 -83 0 -38 6 -89 11 -112 11 -34 0 -39 -2 -30
-14 12 -14 80 -29 191 -43 50 -6 66 -12 68 -26 3 -12 -9 -23 -42 -37 -54 -23
-63 -46 -13 -35 71 15 103 15 127 1 86 -50 278 -110 322 -100 63 13 147 77
172 129 21 44 42 45 90 0 45 -41 43 -53 -21 -139 -24 -32 -47 -64 -49 -70 -3
-7 -50 -59 -104 -115 -95 -97 -117 -131 -86 -131 15 0 175 156 239 233 21 24
55 72 77 106 44 68 45 69 147 45 167 -39 303 27 345 169 14 48 32 56 61 29 41
-37 84 -52 151 -52 86 0 162 29 225 86 52 47 85 61 216 96 61 16 112 21 218
22 134 1 139 0 158 -22 10 -13 24 -43 30 -65 13 -51 37 -90 49 -82 13 8 12 70
-1 120 -24 92 -24 93 12 99 19 3 53 7 75 9 48 5 98 27 95 42 -1 6 -23 9 -49 8
-205 -7 -217 -6 -274 16 -58 22 -158 102 -158 126 0 7 15 18 33 26 41 16 127
71 127 81 0 17 -51 7 -114 -23 -74 -34 -140 -48 -150 -30 -4 6 3 28 16 49 35
56 58 123 58 170 0 35 -3 42 -20 42 -22 0 -50 -46 -50 -82 -1 -39 -36 -104
-72 -131 -74 -57 -311 -94 -528 -82 -238 13 -466 90 -559 189 l-24 25 24 5
c13 3 53 7 89 10 132 11 340 85 452 163 40 27 78 93 78 136 0 32 12 39 126 70
196 54 399 75 694 72 143 -1 182 -5 215 -19z m-696 -723 c-1 -55 -22 -117 -40
-121 -10 -2 -21 8 -28 26 -18 43 -63 82 -107 93 -79 18 -149 -13 -222 -97
l-42 -49 3 80 2 80 163 6 c89 3 165 9 169 12 3 4 28 7 55 7 l48 0 -1 -37z
m443 -125 c21 -6 35 -14 33 -18 -6 -10 -215 -11 -215 -1 0 4 15 15 33 24 34
17 79 16 149 -5z m-319 -8 c31 -11 64 -20 74 -21 29 -1 -66 -27 -125 -35 l-55
-7 7 29 c8 30 23 54 35 54 4 0 32 -9 64 -20z"/>
<path d="M5373 5718 c-151 -159 -249 -305 -308 -457 -14 -39 -34 -80 -44 -93
-65 -87 -109 -374 -80 -533 15 -87 47 -158 74 -164 19 -3 19 -1 -4 124 -26
133 -8 357 39 496 12 34 19 68 16 75 -3 7 5 25 17 40 12 16 31 48 43 74 47 99
191 302 302 423 29 32 50 62 47 67 -14 23 -45 6 -102 -52z"/>
<path d="M4523 5555 c-35 -61 -269 -264 -405 -350 -53 -34 -59 -40 -40 -43 57
-8 306 149 363 229 12 17 46 58 75 92 30 34 54 68 54 74 0 18 -37 16 -47 -2z"/>
<path d="M5140 5075 c-32 -39 -36 -250 -6 -345 35 -111 143 -297 186 -320 46
-25 46 6 0 75 -65 97 -123 224 -144 318 -9 37 -9 196 -1 240 7 38 -14 57 -35
32z"/>
<path d="M4270 4396 c0 -7 70 -39 135 -61 107 -36 364 -70 436 -59 58 10 35
24 -52 35 -134 15 -333 48 -399 64 -89 23 -120 28 -120 21z"/>
<path d="M6130 4293 c-41 -8 -136 -17 -210 -21 -110 -6 -135 -10 -135 -22 0
-26 206 -26 335 1 114 24 144 35 135 50 -8 12 -33 10 -125 -8z"/>
<path d="M4877 4177 c-6 -16 7 -134 15 -143 23 -23 38 71 22 134 -7 24 -29 30
-37 9z"/>
<path d="M3077 2394 c-15 -15 -6 -54 15 -68 12 -9 37 -16 55 -16 l33 0 0 -104
c0 -116 0 -116 -71 -116 -33 0 -41 4 -49 25 -7 19 -17 25 -39 25 -50 0 -61 -9
-61 -50 0 -65 13 -70 169 -70 94 0 143 4 154 13 16 11 17 31 15 187 l-3 175
-106 3 c-58 1 -108 -1 -112 -4z"/>
<path d="M3345 2389 c-11 -17 5 -342 17 -356 15 -19 291 -18 306 0 7 8 12 81
14 188 l3 174 -43 3 c-69 5 -72 -2 -72 -153 0 -145 0 -145 -61 -145 -16 0 -32
6 -34 13 -2 6 -8 73 -12 147 l-8 135 -52 3 c-31 2 -54 -2 -58 -9z"/>
<path d="M3734 2387 c-2 -7 -3 -91 -2 -187 l3 -175 49 -3 c32 -2 52 1 57 10 5
7 9 43 9 81 0 91 17 88 82 -13 l51 -81 51 3 51 3 6 135 c4 74 8 158 10 185 l4
50 -56 3 c-68 4 -77 -5 -81 -78 -2 -30 -7 -55 -13 -55 -5 0 -30 30 -54 68
l-44 67 -59 0 c-39 0 -60 -4 -64 -13z"/>
<path d="M4147 2393 c-4 -3 -7 -21 -7 -39 0 -36 7 -40 75 -46 l30 -3 3 -143 3
-143 57 3 57 3 8 135 c4 74 10 136 13 139 3 3 26 8 52 11 l47 5 3 43 3 42
-169 0 c-93 0 -172 -3 -175 -7z"/>
<path d="M4608 2391 c-26 -4 -49 -9 -52 -12 -8 -8 -28 -329 -22 -345 7 -18 95
-19 100 -1 2 6 8 30 12 52 8 38 11 40 51 46 24 3 47 3 53 -1 5 -3 11 -28 12
-55 l3 -50 60 0 60 0 -4 165 c-4 215 -1 210 -130 209 -53 -1 -117 -5 -143 -8z
m136 -87 c11 -4 16 -19 16 -49 0 -49 -10 -56 -61 -46 -30 6 -34 11 -37 41 -5
48 33 73 82 54z"/>
<path d="M4992 2390 c-24 -3 -48 -13 -53 -21 -15 -25 -11 -155 6 -169 8 -7 54
-16 103 -21 105 -11 112 -13 112 -37 0 -29 -21 -42 -68 -42 -36 0 -45 4 -49
20 -5 18 -12 21 -57 18 l-51 -3 -3 -43 c-5 -69 1 -72 160 -72 77 0 147 4 157
10 27 14 38 127 17 169 -18 34 -27 37 -131 46 -78 7 -90 13 -80 44 5 18 14 21
55 21 33 0 50 -5 54 -15 7 -20 79 -20 95 -1 20 24 8 79 -20 93 -26 14 -173 15
-247 3z"/>
<path d="M5573 2393 c-44 -6 -50 -17 -58 -103 -9 -96 -4 -100 116 -111 49 -5
94 -11 99 -14 16 -10 11 -52 -6 -59 -9 -3 -34 -6 -56 -6 -31 0 -41 4 -45 20
-4 16 -14 20 -53 20 -41 0 -49 -3 -54 -22 -9 -37 -7 -73 6 -86 15 -15 281 -17
309 -2 16 9 19 22 19 95 0 102 -11 114 -105 116 -86 1 -110 10 -110 39 0 23 4
25 49 28 37 2 52 -1 58 -12 5 -10 23 -16 43 -16 56 0 65 8 65 55 0 39 -3 44
-31 54 -30 10 -176 13 -246 4z"/>
<path d="M5904 2388 c-4 -7 -7 -89 -6 -182 1 -127 4 -171 14 -177 7 -5 79 -9
160 -9 135 0 148 2 158 19 15 29 13 334 -2 349 -17 17 -314 17 -324 0z m209
-75 c4 -2 7 -54 7 -114 l0 -110 -47 3 -48 3 -3 109 c-2 81 1 112 10 118 12 7
62 2 81 -9z"/>
<path d="M6289 2278 c-1 -68 -2 -152 -3 -188 l-1 -65 56 -3 c67 -3 69 0 69
116 0 64 2 72 19 72 10 0 24 -7 31 -15 18 -21 39 -19 60 7 15 19 20 20 34 9
12 -10 16 -31 16 -80 0 -106 3 -111 66 -111 l54 0 0 190 0 190 -64 0 c-62 0
-66 -1 -92 -35 -33 -44 -56 -44 -91 0 -27 33 -31 35 -90 35 l-63 0 -1 -122z"/>
<path d="M6747 2393 c-13 -12 -8 -348 5 -361 8 -8 58 -12 160 -12 135 0 148 2
158 19 11 21 14 318 4 345 -5 14 -29 16 -163 16 -87 0 -161 -3 -164 -7z m208
-188 l0 -110 -45 0 -45 0 -3 112 c-3 123 -2 126 63 113 l30 -6 0 -109z"/>
<path d="M7180 2393 c-14 -3 -31 -10 -37 -15 -16 -13 -18 -174 -3 -183 6 -4
50 -10 98 -15 79 -8 122 -17 122 -25 0 -2 -4 -15 -10 -29 -8 -23 -15 -26 -56
-26 -37 0 -47 4 -51 20 -4 17 -14 20 -58 20 l-53 0 -4 -42 c-9 -77 -7 -78 164
-78 177 0 177 0 178 97 0 104 -16 122 -115 124 -76 2 -100 11 -100 39 0 19 7
26 34 33 28 7 39 5 63 -13 20 -15 40 -20 66 -18 l37 3 0 50 c0 44 -3 50 -25
56 -28 8 -211 9 -250 2z"/>
<path d="M2558 1553 c-42 -11 -89 -207 -90 -377 -1 -157 25 -216 96 -216 40 0
57 38 96 213 15 64 9 79 -20 52 -37 -33 -38 -20 -20 172 7 72 10 139 7 147 -6
15 -33 19 -69 9z"/>
<path d="M5437 1532 c-10 -10 -17 -26 -17 -36 0 -12 -5 -16 -18 -12 -14 5 -23
-4 -39 -36 -54 -109 -73 -248 -61 -443 13 -198 56 -324 127 -372 48 -32 75
-29 119 15 60 60 74 141 50 294 -6 43 -9 81 -5 84 3 3 23 12 44 19 46 16 63 6
63 -37 0 -22 11 -41 38 -68 72 -72 167 -64 230 20 24 31 50 51 84 65 27 11 71
41 96 66 53 52 87 73 107 65 11 -4 8 -18 -15 -63 -34 -66 -37 -88 -14 -97 9
-3 14 -15 12 -28 -4 -30 -26 -34 -31 -6 -2 13 -5 -6 -6 -40 -1 -60 1 -66 33
-98 29 -29 41 -34 83 -34 60 0 110 29 152 87 17 24 31 45 31 48 0 8 34 45 42
45 3 0 12 -26 18 -57 26 -138 64 -193 131 -193 66 0 115 61 186 228 17 41 42
41 72 2 50 -69 158 -104 227 -75 43 18 134 112 177 185 18 30 40 56 49 58 18
3 78 -44 78 -62 0 -7 -12 -28 -26 -47 -54 -73 -70 -161 -38 -208 34 -48 120
-64 187 -36 80 33 105 132 59 228 -28 55 -24 74 15 83 49 11 113 53 113 74 0
25 -11 25 -43 0 -39 -31 -92 -50 -137 -50 -37 0 -47 6 -110 70 -63 63 -70 73
-70 110 0 34 4 41 24 46 38 9 67 -5 82 -42 17 -40 54 -48 54 -11 -1 47 -45 77
-116 77 -88 0 -150 -67 -124 -134 5 -15 10 -38 10 -51 0 -29 -82 -151 -145
-216 -40 -41 -53 -49 -85 -49 -53 0 -65 28 -65 152 l0 99 34 27 c61 47 131
124 137 149 4 15 0 30 -10 42 -14 15 -40 20 -154 26 -75 4 -142 11 -149 17 -8
6 -9 17 -2 38 13 36 -1 64 -41 85 -34 17 -66 13 -121 -17 -48 -27 -66 -56 -46
-75 13 -14 16 -13 27 6 9 18 14 20 26 10 13 -10 19 -8 39 17 14 16 24 33 25
37 0 5 12 7 28 5 25 -3 27 -6 26 -47 -1 -50 -21 -71 -66 -71 -18 0 -31 7 -39
21 -6 12 -14 17 -18 12 -3 -6 -18 -13 -34 -17 -20 -5 -29 -2 -33 9 -5 13 -10
12 -28 -8 -16 -17 -41 -26 -103 -36 -58 -9 -83 -18 -83 -27 0 -10 16 -14 59
-14 33 0 63 -5 66 -10 8 -12 -20 -133 -47 -210 -36 -103 -141 -250 -189 -265
-28 -9 -30 -5 -31 51 0 67 14 134 51 234 17 47 30 96 29 110 -3 23 -7 25 -53
23 -27 0 -64 -4 -82 -8 l-32 -7 2 40 c2 58 -15 74 -76 70 -63 -4 -88 -33 -95
-111 -4 -46 -1 -57 22 -84 14 -17 26 -35 26 -40 0 -28 -76 -78 -97 -65 -6 4
-12 44 -14 89 -4 80 -5 83 -44 124 -64 66 -116 81 -197 57 -57 -17 -82 -63
-74 -131 6 -45 4 -57 -14 -80 -24 -31 -69 -57 -98 -57 -21 0 -52 29 -52 49 0
8 -16 35 -35 61 -19 26 -35 55 -35 63 0 8 16 45 35 81 26 49 35 78 34 109 -1
26 -3 33 -6 18 -6 -31 -50 -101 -64 -101 -13 0 -2 102 17 148 15 36 28 41 43
15 9 -15 10 -15 11 -2 0 40 -73 55 -103 21z m1574 -173 c19 -10 19 -12 -15
-49 -47 -52 -58 -75 -50 -106 6 -23 4 -26 -10 -21 -9 4 -16 5 -16 3 0 -12 -62
-172 -70 -180 -6 -6 -10 -18 -10 -27 0 -24 -76 -172 -99 -193 -11 -10 -27 -16
-36 -13 -21 9 -21 194 1 319 12 75 21 100 45 128 16 19 47 58 69 87 42 54 38
53 148 61 13 1 32 -3 43 -9z m-212 -8 c19 -12 7 -39 -21 -50 -33 -13 -44 3
-24 33 18 28 24 30 45 17z m385 1 c14 -23 -69 -132 -101 -132 -7 0 -13 11 -13
25 0 14 5 25 10 25 6 0 10 5 10 11 0 6 12 26 26 45 24 32 56 44 68 26z m-991
-68 c-1 -45 -19 -74 -45 -74 -16 0 -9 98 8 115 26 26 39 12 37 -41z m-292 20
c63 -32 103 -183 62 -233 -16 -18 -23 -20 -52 -12 -18 6 -45 18 -58 27 -23 15
-25 20 -19 63 14 94 14 96 -19 97 -52 2 -55 4 -55 25 0 46 80 65 141 33z
m1129 -75 c0 -6 -9 -22 -19 -35 l-19 -25 -16 23 c-16 22 -15 23 4 26 11 2 20
8 20 13 0 5 7 9 15 9 8 0 15 -5 15 -11z m-1564 -67 c6 -4 18 -22 27 -41 17
-33 10 -61 -14 -61 -19 0 -49 42 -49 68 0 39 12 50 36 34z m447 -147 c21 -9
22 -23 0 -47 -24 -27 -51 -22 -73 14 -32 53 -6 65 73 33z m-393 0 c29 -15 30
-19 32 -88 3 -166 -14 -247 -54 -247 -22 0 -21 -2 -42 115 -16 91 -21 216 -9
228 11 11 42 8 73 -8z m758 2 c7 -8 8 -18 1 -27 -8 -13 -12 -12 -24 4 -8 11
-15 23 -15 28 0 13 26 9 38 -5z m1273 -54 c5 -13 9 -51 9 -83 0 -49 -4 -61
-22 -74 -66 -46 -105 94 -47 168 23 29 46 25 60 -11z"/>
<path d="M7863 1535 c-31 -22 -44 -95 -41 -231 1 -65 -1 -124 -4 -130 -8 -11
19 -112 34 -131 16 -20 66 -16 78 6 17 32 26 433 10 470 -14 35 -42 41 -77 16z"/>
<path d="M3085 1501 c-16 -10 -44 -38 -62 -63 l-32 -45 24 -11 c21 -10 26 -8
44 22 12 18 21 39 21 46 0 6 6 10 13 8 15 -6 22 -48 8 -48 -6 0 -11 -7 -11
-16 0 -9 -6 -28 -14 -42 -8 -15 -21 -49 -28 -76 -7 -27 -19 -51 -25 -53 -7 -3
-13 -15 -13 -27 0 -31 -11 -39 -25 -19 -37 50 -75 -210 -42 -280 25 -52 52
-70 101 -70 48 0 96 24 96 48 0 19 -19 19 -40 0 -9 -8 -27 -16 -41 -17 -24 -3
-24 -2 -23 82 0 84 30 220 53 243 6 6 11 17 11 24 0 23 -18 14 -32 -17 -16
-38 -33 -39 -24 -2 4 15 10 39 13 55 3 15 9 27 14 27 5 0 9 8 9 19 0 10 7 24
15 31 8 7 15 21 15 31 0 11 5 19 11 19 7 0 9 -12 7 -30 -6 -39 9 -50 18 -13 4
15 9 33 13 38 3 6 11 30 17 55 22 84 -22 124 -91 81z"/>
<path d="M2770 1480 c-11 -11 -20 -30 -20 -43 0 -13 -5 -28 -12 -35 -10 -10
-9 -18 4 -40 12 -22 14 -40 7 -92 -9 -78 4 -135 38 -157 21 -14 25 -14 47 0
31 21 43 67 21 80 -15 8 -16 25 -11 146 l6 138 -25 11 c-33 15 -31 16 -55 -8z"/>
<path d="M3876 1453 c-7 -18 16 -43 40 -43 43 0 59 32 25 50 -29 15 -58 12
-65 -7z"/>
<path d="M3447 1374 c-63 -15 -156 -71 -180 -107 -15 -23 -97 -251 -97 -269 0
-6 10 -8 22 -5 16 5 31 -1 50 -20 22 -21 40 -28 85 -31 54 -3 61 -1 92 28 18
17 39 29 45 27 7 -3 18 -25 25 -48 18 -62 36 -87 77 -104 66 -28 97 -21 154
35 l52 51 25 -18 c54 -38 90 -52 136 -53 86 0 145 50 202 173 38 83 52 91 93
58 26 -23 29 -53 5 -72 -23 -19 -63 -113 -63 -148 0 -34 37 -91 70 -109 16 -8
46 -11 84 -8 46 3 64 10 87 32 55 53 62 125 19 218 -12 27 -18 52 -13 56 4 3
30 15 56 24 63 24 106 60 90 76 -9 10 -19 6 -45 -13 -18 -14 -59 -33 -91 -42
l-57 -16 -48 37 c-109 86 -151 171 -98 195 39 18 73 4 86 -36 9 -27 17 -35 36
-35 43 0 25 59 -26 85 -85 44 -200 -6 -200 -87 0 -21 5 -47 12 -58 10 -15 10
-27 0 -57 -54 -158 -131 -252 -193 -236 -55 15 -61 97 -20 280 28 121 24 153
-19 153 -20 0 -33 -7 -42 -22 -26 -48 -76 -180 -82 -218 -8 -51 -49 -138 -81
-173 -29 -30 -59 -35 -73 -11 -11 20 7 127 43 254 40 141 41 147 14 176 -24
26 -105 55 -148 53 -14 0 -52 -7 -84 -15z m97 -63 c8 -12 -55 -157 -101 -231
-78 -127 -120 -69 -64 90 20 56 63 114 101 135 29 16 56 19 64 6z m86 -107 c0
-21 -4 -33 -10 -29 -17 10 -11 65 7 65 2 0 3 -16 3 -36z m-335 -5 c-10 -15
-25 -10 -19 6 4 8 10 12 15 9 5 -3 7 -10 4 -15z m49 -22 c-3 -9 -10 -17 -15
-17 -11 0 -12 34 -2 44 11 11 24 -9 17 -27z m976 -209 c30 -49 27 -128 -4
-157 -20 -18 -28 -21 -44 -12 -47 25 -46 153 1 186 27 19 24 20 47 -17z"/>
<path d="M3100 1260 c0 -5 5 -10 10 -10 6 0 10 5 10 10 0 6 -4 10 -10 10 -5 0
-10 -4 -10 -10z"/>
<path d="M3170 970 c0 -5 5 -10 10 -10 6 0 10 5 10 10 0 6 -4 10 -10 10 -5 0
-10 -4 -10 -10z"/>
<path d="M7825 899 c-21 -34 77 -67 104 -35 22 27 2 46 -49 46 -27 0 -52 -5
-55 -11z"/>
</g>
</svg>
